<svg xmlns="http://www.w3.org/2000/svg" viewBox="0 0 1511 100"><path d="M307.29 2v96h-305V2h305m2-2H.29v100h309V0zM431.01 13.42l-1.41 1.59c-1.56-1.26-3-1.8-4.74-1.8-2.19 0-3.84 1.05-3.84 3.06 0 1.83.87 2.7 4.59 3.84 3.39 1.02 6.06 2.34 6.06 6.21 0 3.6-2.7 6.09-7.23 6.09-2.94 0-5.22-.99-6.93-2.64l1.44-1.62c1.56 1.29 3.18 2.1 5.46 2.1 2.52 0 4.56-1.29 4.56-3.84 0-2.13-1.02-3.06-4.56-4.14-4.05-1.23-6.06-2.76-6.06-5.91 0-3.09 2.64-5.31 6.39-5.31 2.82 0 4.59.84 6.27 2.37zM447.6 25.03h-10.17c.27 3.81 2.01 5.31 4.41 5.31 1.59 0 2.76-.45 4.14-1.41l1.11 1.5c-1.53 1.23-3.27 1.98-5.43 1.98-4.35 0-6.9-3.09-6.9-8.1 0-4.95 2.46-8.4 6.48-8.4 4.23 0 6.42 2.97 6.42 7.74 0 .54-.03 1.05-.06 1.38zm-2.43-2.1c0-3.18-1.26-5.01-3.87-5.01-2.19 0-3.66 1.56-3.87 5.25h7.74v-.24zM460.44 16.09l-.45 2.46c-.48-.12-.81-.18-1.38-.18-2.01 0-3.15 1.41-3.87 4.44v9.24h-2.52V16.27h2.16l.24 3.3c.84-2.43 2.31-3.66 4.26-3.66.54 0 1.11.06 1.56.18zM466.74 10.57c0 .99-.72 1.74-1.8 1.74-1.05 0-1.77-.75-1.77-1.74s.72-1.74 1.77-1.74c1.08 0 1.8.75 1.8 1.74zm-.51 21.48h-2.52V16.27h2.52v15.78zM483.84 30.64l-.6 1.77c-1.53-.21-2.52-.84-2.94-2.43-1.11 1.68-2.79 2.43-4.74 2.43-3.12 0-4.98-1.95-4.98-4.77 0-3.36 2.52-5.16 6.84-5.16H480v-1.26c0-2.34-1.11-3.24-3.39-3.24-1.2 0-2.64.3-4.26.87l-.63-1.86c1.89-.72 3.6-1.08 5.34-1.08 3.75 0 5.46 1.92 5.46 5.19v7.32c0 1.47.48 1.92 1.32 2.22zM480 27.91v-3.75h-2.25c-2.94 0-4.5 1.11-4.5 3.36 0 1.92.99 2.97 2.88 2.97 1.71 0 2.97-.87 3.87-2.58zM487.89 29.05V9.91l2.52-.3v19.38c0 .87.3 1.32 1.05 1.32.39 0 .72-.06 1.02-.18l.66 1.77c-.57.3-1.32.51-2.1.51-1.92 0-3.15-1.17-3.15-3.36zM908 2v96H603V2h305m2-2H601v100h309V0z"/><path d="M99.19 45.74c0 4.71-3.39 6.63-7.92 6.63h-2.7v7.68h-2.58V39.41h5.28c4.92 0 7.92 2.01 7.92 6.33zm-2.76.03c0-3.18-2.01-4.32-5.19-4.32h-2.67v8.85h2.61c3.15 0 5.25-.96 5.25-4.53zM110.8 44.09l-.45 2.46c-.48-.12-.81-.18-1.38-.18-2.01 0-3.15 1.41-3.87 4.44v9.24h-2.52V44.27h2.16l.24 3.3c.84-2.43 2.31-3.66 4.26-3.66.54 0 1.11.06 1.56.18zM125.89 52.13c0 4.95-2.55 8.28-6.96 8.28S112 57.2 112 52.19c0-4.95 2.55-8.28 6.96-8.28 4.44 0 6.93 3.18 6.93 8.22zm-11.19.06c0 4.17 1.5 6.18 4.23 6.18s4.26-2.01 4.26-6.24c0-4.17-1.5-6.18-4.23-6.18-2.7 0-4.26 2.01-4.26 6.24zM141.01 45.59l-1.23 1.59c-1.05-.78-2.07-1.17-3.42-1.17-2.58 0-4.23 2.01-4.23 6.24 0 4.2 1.65 6 4.23 6 1.35 0 2.31-.42 3.48-1.23l1.17 1.65c-1.35 1.14-2.94 1.74-4.74 1.74-4.2 0-6.84-3.03-6.84-8.13 0-5.04 2.61-8.37 6.84-8.37 1.83 0 3.3.48 4.74 1.68zM155.98 53.03h-10.17c.27 3.81 2.01 5.31 4.41 5.31 1.59 0 2.76-.45 4.14-1.41l1.11 1.5c-1.53 1.23-3.27 1.98-5.43 1.98-4.35 0-6.9-3.09-6.9-8.1 0-4.95 2.46-8.4 6.48-8.4 4.23 0 6.42 2.97 6.42 7.74 0 .54-.03 1.05-.06 1.38zm-2.43-2.1c0-3.18-1.26-5.01-3.87-5.01-2.19 0-3.66 1.56-3.87 5.25h7.74v-.24zM170.05 45.71l-1.08 1.59c-1.41-.93-2.61-1.38-4.11-1.38-1.86 0-3.06.87-3.06 2.22s.9 1.95 3.51 2.64c3.33.87 5.19 2.13 5.19 4.89 0 3.21-2.91 4.74-6.09 4.74-2.67 0-4.53-.87-5.91-2.07l1.35-1.53c1.29.96 2.73 1.56 4.5 1.56 2.1 0 3.51-.96 3.51-2.55 0-1.65-.81-2.25-3.93-3.09-3.39-.9-4.74-2.31-4.74-4.53 0-2.49 2.37-4.29 5.58-4.29 2.16 0 3.78.66 5.28 1.8zM183.7 45.71l-1.08 1.59c-1.41-.93-2.61-1.38-4.11-1.38-1.86 0-3.06.87-3.06 2.22s.9 1.95 3.51 2.64c3.33.87 5.19 2.13 5.19 4.89 0 3.21-2.91 4.74-6.09 4.74-2.67 0-4.53-.87-5.91-2.07l1.35-1.53c1.29.96 2.73 1.56 4.5 1.56 2.1 0 3.51-.96 3.51-2.55 0-1.65-.81-2.25-3.93-3.09-3.39-.9-4.74-2.31-4.74-4.53 0-2.49 2.37-4.29 5.58-4.29 2.16 0 3.78.66 5.28 1.8zM191.26 38.57c0 .99-.72 1.74-1.8 1.74-1.05 0-1.77-.75-1.77-1.74s.72-1.74 1.77-1.74c1.08 0 1.8.75 1.8 1.74zm-.51 21.48h-2.52V44.27h2.52v15.78zM208.45 48.74v11.31h-2.52V49.1c0-2.43-.99-3.21-2.61-3.21-1.86 0-3.12 1.17-4.2 2.91v11.25h-2.52V44.27h2.16l.21 2.37c1.17-1.62 2.82-2.73 4.95-2.73 2.88 0 4.53 1.83 4.53 4.83zM226.63 44.9c-1.26.39-2.73.45-4.56.48 1.83.81 2.76 2.13 2.76 4.05 0 3.09-2.22 5.31-5.94 5.31-.72 0-1.38-.09-2.01-.3-.54.36-.87.93-.87 1.56 0 .75.48 1.35 2.16 1.35h2.52c3.21 0 5.31 1.83 5.31 4.29 0 3.03-2.43 4.74-7.26 4.74-5.07 0-6.72-1.53-6.72-4.71h2.28c0 1.89.9 2.73 4.44 2.73 3.48 0 4.71-.93 4.71-2.58 0-1.56-1.23-2.34-3.27-2.34h-2.49c-2.76 0-4.02-1.38-4.02-2.94 0-1.05.6-2.04 1.71-2.76-1.8-.96-2.64-2.34-2.64-4.41 0-3.21 2.52-5.46 6-5.46 3.99.09 5.37-.51 7.14-1.32l.75 2.31zm-11.31 4.47c0 2.22 1.26 3.69 3.48 3.69 2.25 0 3.45-1.35 3.45-3.69s-1.17-3.63-3.51-3.63c-2.25 0-3.42 1.53-3.42 3.63z"/><path fill="none" stroke="#000" stroke-width="2" stroke-miterlimit="10" d="M320.94 50h268.12"/><path d="M326.56 57.41L323.41 50l3.15-7.41L309 50zM583.44 57.41l3.15-7.41-3.15-7.41L601 50zM1030.47 21.61c0 8.46-5.22 10.44-9.63 10.44h-4.8V11.41h4.26c5.16 0 10.17 1.65 10.17 10.2zm-11.85-8.1v16.47h2.43c3.3 0 6.63-1.44 6.63-8.37 0-7.11-3.48-8.1-6.84-8.1h-2.22zM1038.15 10.57c0 .99-.72 1.74-1.8 1.74-1.05 0-1.77-.75-1.77-1.74s.72-1.74 1.77-1.74c1.08 0 1.8.75 1.8 1.74zm-.51 21.48h-2.52V16.27h2.52v15.78zM1055.97 16.9c-1.26.39-2.73.45-4.56.48 1.83.81 2.76 2.13 2.76 4.05 0 3.09-2.22 5.31-5.94 5.31-.72 0-1.38-.09-2.01-.3-.54.36-.87.93-.87 1.56 0 .75.48 1.35 2.16 1.35h2.52c3.21 0 5.31 1.83 5.31 4.29 0 3.03-2.43 4.74-7.26 4.74-5.07 0-6.72-1.53-6.72-4.71h2.28c0 1.89.9 2.73 4.44 2.73 3.48 0 4.71-.93 4.71-2.58 0-1.56-1.23-2.34-3.27-2.34h-2.49c-2.76 0-4.02-1.38-4.02-2.94 0-1.05.6-2.04 1.71-2.76-1.8-.96-2.64-2.34-2.64-4.41 0-3.21 2.52-5.46 6-5.46 3.99.09 5.37-.51 7.14-1.32l.75 2.31zm-11.31 4.47c0 2.22 1.26 3.69 3.48 3.69 2.25 0 3.45-1.35 3.45-3.69s-1.17-3.63-3.51-3.63c-2.25 0-3.42 1.53-3.42 3.63zM1062 10.57c0 .99-.72 1.74-1.8 1.74-1.05 0-1.77-.75-1.77-1.74s.72-1.74 1.77-1.74c1.08 0 1.8.75 1.8 1.74zm-.51 21.48h-2.52V16.27h2.52v15.78zM1075.11 31.36c-1.02.69-2.16 1.05-3.48 1.05-2.61 0-4.17-1.53-4.17-4.41v-9.78h-2.73v-1.95h2.73v-3.63l2.52-.27v3.9h3.81l-.27 1.95h-3.54v9.66c0 1.65.57 2.43 1.98 2.43.75 0 1.41-.21 2.19-.66l.96 1.71zM1089.57 30.64l-.6 1.77c-1.53-.21-2.52-.84-2.94-2.43-1.11 1.68-2.79 2.43-4.74 2.43-3.12 0-4.98-1.95-4.98-4.77 0-3.36 2.52-5.16 6.84-5.16h2.58v-1.26c0-2.34-1.11-3.24-3.39-3.24-1.2 0-2.64.3-4.26.87l-.63-1.86c1.89-.72 3.6-1.08 5.34-1.08 3.75 0 5.46 1.92 5.46 5.19v7.32c0 1.47.48 1.92 1.32 2.22zm-3.84-2.73v-3.75h-2.25c-2.94 0-4.5 1.11-4.5 3.36 0 1.92.99 2.97 2.88 2.97 1.71 0 2.97-.87 3.87-2.58zM1093.62 29.05V9.91l2.52-.3v19.38c0 .87.3 1.32 1.05 1.32.39 0 .72-.06 1.02-.18l.66 1.77c-.57.3-1.32.51-2.1.51-1.92 0-3.15-1.17-3.15-3.36z"/><g><path fill="none" stroke="#000" stroke-width="2" stroke-miterlimit="10" d="M910 50h280.06"/><path d="M1184.44 57.41l3.15-7.41-3.15-7.41L1202 50z"/></g><g><path d="M714.87 54.77h-8.04l-1.62 5.28h-2.64l6.69-20.64h3.3l6.66 20.64h-2.76l-1.59-5.28zm-.66-2.13l-3.36-11.07-3.39 11.07h6.75zM730.62 44.09l-.45 2.46c-.48-.12-.81-.18-1.38-.18-2.01 0-3.15 1.41-3.87 4.44v9.24h-2.52V44.27h2.16l.24 3.3c.84-2.43 2.31-3.66 4.26-3.66.54 0 1.11.06 1.56.18zM744.95 37.91v22.14h-2.19l-.27-2.22c-.99 1.56-2.58 2.58-4.59 2.58-3.81 0-5.94-3.24-5.94-8.19 0-4.83 2.31-8.31 6.18-8.31 1.92 0 3.27.9 4.29 1.98v-8.28l2.52.3zm-2.51 18v-7.86c-.96-1.29-2.1-2.13-3.75-2.13-2.46 0-4.02 2.07-4.02 6.27 0 4.2 1.38 6.21 3.75 6.21 1.83 0 2.96-.9 4.02-2.49zM762.41 60.05h-2.16l-.21-2.55c-1.17 1.92-2.67 2.91-4.95 2.91-2.79 0-4.41-1.74-4.41-4.83V44.27h2.52v11.04c0 2.25.78 3.09 2.58 3.09s3.12-1.17 4.11-2.82V44.27h2.52v15.78zM771.29 38.57c0 .99-.72 1.74-1.8 1.74-1.05 0-1.77-.75-1.77-1.74s.72-1.74 1.77-1.74c1.09 0 1.8.75 1.8 1.74zm-.5 21.48h-2.52V44.27h2.52v15.78zM788.48 48.74v11.31h-2.52V49.1c0-2.43-.99-3.21-2.61-3.21-1.86 0-3.12 1.17-4.2 2.91v11.25h-2.52V44.27h2.16l.21 2.37c1.17-1.62 2.82-2.73 4.95-2.73 2.88 0 4.53 1.83 4.53 4.83zM806.9 52.13c0 4.95-2.55 8.28-6.96 8.28s-6.93-3.21-6.93-8.22c0-4.95 2.55-8.28 6.96-8.28 4.44 0 6.93 3.18 6.93 8.22zm-11.19.06c0 4.17 1.5 6.18 4.23 6.18 2.73 0 4.26-2.01 4.26-6.24 0-4.17-1.5-6.18-4.23-6.18-2.7 0-4.26 2.01-4.26 6.24z"/></g><g><path d="M1509 2v96h-305V2h305m2-2h-309v100h309V0z"/></g><g><path d="M1286.93 57.77h8.52l-.3 2.28h-10.8V39.41h2.58v18.36zM1309.85 41.51h-8.13v6.96h7.05v2.1h-7.05v7.38h8.64v2.1h-11.22V39.41h11.01l-.3 2.1zM1329.47 49.61c0 8.46-5.22 10.44-9.63 10.44h-4.8V39.41h4.26c5.16 0 10.17 1.65 10.17 10.2zm-11.85-8.1v16.47h2.43c3.3 0 6.63-1.44 6.63-8.37 0-7.11-3.48-8.1-6.84-8.1h-2.22zM1351.61 45.71l-1.08 1.59c-1.41-.93-2.61-1.38-4.11-1.38-1.86 0-3.06.87-3.06 2.22s.9 1.95 3.51 2.64c3.33.87 5.19 2.13 5.19 4.89 0 3.21-2.91 4.74-6.09 4.74-2.67 0-4.53-.87-5.91-2.07l1.35-1.53c1.29.96 2.73 1.56 4.5 1.56 2.1 0 3.51-.96 3.51-2.55 0-1.65-.81-2.25-3.93-3.09-3.39-.9-4.74-2.31-4.74-4.53 0-2.49 2.37-4.29 5.58-4.29 2.16 0 3.78.66 5.28 1.8zM1363.91 59.36c-1.02.69-2.16 1.05-3.48 1.05-2.61 0-4.17-1.53-4.17-4.41v-9.78h-2.73v-1.95h2.73v-3.63l2.52-.27v3.9h3.81l-.27 1.95h-3.54v9.66c0 1.65.57 2.43 1.98 2.43.75 0 1.41-.21 2.19-.66l.96 1.71zM1375.04 44.09l-.45 2.46c-.48-.12-.81-.18-1.38-.18-2.01 0-3.15 1.41-3.87 4.44v9.24h-2.52V44.27h2.16l.24 3.3c.84-2.43 2.31-3.66 4.26-3.66.54 0 1.11.06 1.56.18zM1381.34 38.57c0 .99-.72 1.74-1.8 1.74-1.05 0-1.77-.75-1.77-1.74s.72-1.74 1.77-1.74c1.08 0 1.8.75 1.8 1.74zm-.51 21.48h-2.52V44.27h2.52v15.78zM1399.55 52.13c0 4.83-2.1 8.28-6.15 8.28-1.77 0-3.21-.63-4.2-1.86v7.53l-2.52.3V44.27h2.16l.21 2.19c1.14-1.62 2.82-2.55 4.68-2.55 4.14 0 5.82 3.21 5.82 8.22zm-2.7 0c0-4.2-1.26-6.21-3.72-6.21-1.74 0-3.06 1.2-3.93 2.52v7.89c.84 1.26 2.1 2.01 3.63 2.01 2.61 0 4.02-1.98 4.02-6.21zM1416.08 53.03h-10.17c.27 3.81 2.01 5.31 4.41 5.31 1.59 0 2.76-.45 4.14-1.41l1.11 1.5c-1.53 1.23-3.27 1.98-5.43 1.98-4.35 0-6.9-3.09-6.9-8.1 0-4.95 2.46-8.4 6.48-8.4 4.23 0 6.42 2.97 6.42 7.74 0 .54-.03 1.05-.06 1.38zm-2.43-2.1c0-3.18-1.26-5.01-3.87-5.01-2.19 0-3.66 1.56-3.87 5.25h7.74v-.24zM1430.15 45.71l-1.08 1.59c-1.41-.93-2.61-1.38-4.11-1.38-1.86 0-3.06.87-3.06 2.22s.9 1.95 3.51 2.64c3.33.87 5.19 2.13 5.19 4.89 0 3.21-2.91 4.74-6.09 4.74-2.67 0-4.53-.87-5.91-2.07l1.35-1.53c1.29.96 2.73 1.56 4.5 1.56 2.1 0 3.51-.96 3.51-2.55 0-1.65-.81-2.25-3.93-3.09-3.39-.9-4.74-2.31-4.74-4.53 0-2.49 2.37-4.29 5.58-4.29 2.16 0 3.78.66 5.28 1.8z"/></g></svg>