<svg xmlns="http://www.w3.org/2000/svg" viewBox="0 0 1434 1720"><path d="M764.96 1497.46c18.47 0 33.5 15.03 33.5 33.5s-15.03 33.5-33.5 33.5-33.5-15.03-33.5-33.5 15.03-33.5 33.5-33.5m0-2c-19.61 0-35.5 15.89-35.5 35.5s15.89 35.5 35.5 35.5 35.5-15.89 35.5-35.5-15.9-35.5-35.5-35.5z"/><path fill="none" stroke="#000" stroke-width="2" stroke-miterlimit="10" d="M752.96 1552.46v-43"/><path d="M713.09 1542.26h3.79c1.61 0 2.44 1 2.44 2.17 0 .56-.2 1.36-1.15 1.8.56.23 1.56.62 1.56 2.1 0 1.38-1.02 2.54-2.93 2.54h-3.71v-8.61zm1.16 3.64h2.1c1.12 0 1.8-.34 1.8-1.39 0-.8-.49-1.26-1.79-1.26h-2.11v2.65zm0 3.97h2.48c1.21 0 1.82-.61 1.82-1.57 0-1.21-1.07-1.45-2.01-1.45h-2.29v3.02zM802.19 1482.61c-.32-1.51-1.58-1.79-2.41-1.79-1.56 0-2.82 1.15-2.82 3.42 0 2.03.72 3.59 2.85 3.59.75 0 2.06-.36 2.46-2.36h1.13c-.48 3.25-3.12 3.39-3.77 3.39-1.95 0-3.87-1.27-3.87-4.58 0-2.65 1.51-4.49 4.02-4.49 2.22 0 3.37 1.38 3.54 2.82h-1.13zM803.08 1583.5h-6.36v-8.61H803v1.03h-5.11v2.64h4.71v1.03h-4.71v2.88h5.19v1.03zM769.17 1557.41l-3.14-11.71-8.57 8.58z"/><path fill="none" stroke="#000" stroke-width="2" stroke-miterlimit="10" d="M786.46 1665.46v-91l-.5-.5-32.5-32.5M804.46 1665.46h-36M772.46 1671.46h28M796.46 1677.46h-20M792.46 1683.46h-12M909.99 1123.47h44v234h-44zM919.99 1357.47v40H785.46v90.99l-32.5 32.5M943.99 1357.47v40h135"/><path d="M918.05 1344.47l.54.51c-.39.48-.56.9-.56 1.52 0 1.01.77 2.03 2.83 2.03 2.01 0 2.85-.71 2.85-1.95 0-.48-.1-.94-.32-1.34h-2.16v1.25l-.71.1v-2.21h3.31c.37.64.6 1.35.6 2.2 0 1.76-1.19 2.87-3.57 2.87-2.33 0-3.55-1.39-3.55-2.95 0-.89.26-1.45.74-2.03zM924.3 1337.97v1.16l-5.93 2.9c.55-.05 1.34-.12 2.61-.12h3.32v.81h-6.88v-1.13l5.94-2.92c-.19.02-1.24.11-2.09.11h-3.85v-.81h6.88zM920.83 1331.1c2.82 0 3.48 1.74 3.48 3.21v1.6h-6.88v-1.42c0-1.72.55-3.39 3.4-3.39zm-2.7 3.95h5.49v-.81c0-1.1-.48-2.21-2.79-2.21-2.37 0-2.7 1.16-2.7 2.28v.74zM943.64 1347.16v-1.47h.7v1.47h1.5v.77h-1.5v1.46h-.7v-1.46h-1.5v-.77h1.5zM947.3 1342.59v.84h-5.78l.97 1.58-.6.37-1.27-2.05v-.74h6.68zM942.34 1337.23c1.27 0 2.14.79 4.26 2.88v-3.04l.71.1v3.9h-.67c-2.5-2.38-3.15-2.96-4.26-2.96-.73 0-1.16.46-1.16 1.13 0 .58.24.97.74 1.41l-.44.55c-.66-.54-.99-1.17-.99-2 0-1.21.78-1.97 1.81-1.97zM947.3 1333.41v.94l-6.88 2.23v-.94l5.95-1.77-5.95-1.78v-.88l6.88 2.2zM764.96 1135.46c18.47 0 33.5 15.03 33.5 33.5s-15.03 33.5-33.5 33.5-33.5-15.03-33.5-33.5 15.03-33.5 33.5-33.5m0-2c-19.61 0-35.5 15.89-35.5 35.5s15.89 35.5 35.5 35.5 35.5-15.89 35.5-35.5-15.9-35.5-35.5-35.5z"/><path fill="none" stroke="#000" stroke-width="2" stroke-miterlimit="10" d="M752.96 1190.46v-43"/><path d="M713.09 1180.26h3.79c1.61 0 2.44 1 2.44 2.17 0 .56-.2 1.36-1.15 1.8.56.23 1.56.62 1.56 2.1 0 1.38-1.02 2.54-2.93 2.54h-3.71v-8.61zm1.16 3.64h2.1c1.12 0 1.8-.34 1.8-1.39 0-.8-.49-1.26-1.79-1.26h-2.11v2.65zm0 3.97h2.48c1.21 0 1.82-.61 1.82-1.57 0-1.21-1.07-1.45-2.01-1.45h-2.29v3.02zM802.19 1120.61c-.32-1.51-1.58-1.79-2.41-1.79-1.56 0-2.82 1.15-2.82 3.42 0 2.03.72 3.59 2.85 3.59.75 0 2.06-.36 2.46-2.36h1.13c-.48 3.25-3.12 3.39-3.77 3.39-1.95 0-3.87-1.27-3.87-4.58 0-2.65 1.51-4.49 4.02-4.49 2.22 0 3.37 1.38 3.54 2.82h-1.13zM803.08 1221.5h-6.36v-8.61H803v1.03h-5.11v2.64h4.71v1.03h-4.71v2.88h5.19v1.03zM769.17 1195.41l-3.14-11.71-8.57 8.58z"/><path fill="none" stroke="#000" stroke-width="2" stroke-miterlimit="10" d="M786.46 1303.46v-91l-.5-.5-32.5-32.5M804.46 1303.46h-36M772.46 1309.46h28M796.46 1315.46h-20M792.46 1321.46h-12M909.99 761.47h44v234h-44zM919.99 995.47v40H785.46v90.99l-32.5 32.5M943.99 995.47v40h135"/><path d="M918.05 982.47l.54.51c-.39.48-.56.9-.56 1.52 0 1.01.77 2.03 2.83 2.03 2.01 0 2.85-.71 2.85-1.95 0-.48-.1-.94-.32-1.34h-2.16v1.25l-.71.1v-2.21h3.31c.37.64.6 1.35.6 2.2 0 1.76-1.19 2.87-3.57 2.87-2.33 0-3.55-1.39-3.55-2.95 0-.89.26-1.45.74-2.03zM924.3 975.97v1.16l-5.93 2.9c.55-.05 1.34-.12 2.61-.12h3.32v.81h-6.88v-1.13l5.94-2.92c-.19.02-1.24.11-2.09.11h-3.85v-.81h6.88zM920.83 969.1c2.82 0 3.48 1.74 3.48 3.21v1.6h-6.88v-1.42c0-1.72.55-3.39 3.4-3.39zm-2.7 3.95h5.49v-.81c0-1.1-.48-2.21-2.79-2.21-2.37 0-2.7 1.16-2.7 2.28v.74zM943.64 985.16v-1.47h.7v1.47h1.5v.77h-1.5v1.46h-.7v-1.46h-1.5v-.77h1.5zM947.3 980.59v.84h-5.78l.97 1.58-.6.37-1.27-2.05v-.74h6.68zM942.34 975.23c1.27 0 2.14.79 4.26 2.88v-3.04l.71.1v3.9h-.67c-2.5-2.38-3.15-2.96-4.26-2.96-.73 0-1.16.46-1.16 1.13 0 .58.24.97.74 1.41l-.44.55c-.66-.54-.99-1.17-.99-2 0-1.21.78-1.97 1.81-1.97zM947.3 971.41v.94l-6.88 2.23v-.94l5.95-1.77-5.95-1.78v-.88l6.88 2.2zM764.96 773.46c18.47 0 33.5 15.03 33.5 33.5s-15.03 33.5-33.5 33.5-33.5-15.03-33.5-33.5 15.03-33.5 33.5-33.5m0-2c-19.61 0-35.5 15.89-35.5 35.5s15.89 35.5 35.5 35.5 35.5-15.89 35.5-35.5c0-19.6-15.9-35.5-35.5-35.5z"/><path fill="none" stroke="#000" stroke-width="2" stroke-miterlimit="10" d="M752.96 828.46v-43"/><path d="M713.09 818.26h3.79c1.61 0 2.44 1 2.44 2.17 0 .56-.2 1.36-1.15 1.8.56.23 1.56.62 1.56 2.1 0 1.38-1.02 2.54-2.93 2.54h-3.71v-8.61zm1.16 3.64h2.1c1.12 0 1.8-.34 1.8-1.39 0-.8-.49-1.26-1.79-1.26h-2.11v2.65zm0 3.97h2.48c1.21 0 1.82-.61 1.82-1.57 0-1.21-1.07-1.45-2.01-1.45h-2.29v3.02zM802.19 758.61c-.32-1.51-1.58-1.79-2.41-1.79-1.56 0-2.82 1.15-2.82 3.42 0 2.03.72 3.59 2.85 3.59.75 0 2.06-.36 2.46-2.36h1.13c-.48 3.25-3.12 3.39-3.77 3.39-1.95 0-3.87-1.27-3.87-4.58 0-2.65 1.51-4.49 4.02-4.49 2.22 0 3.37 1.38 3.54 2.82h-1.13zM803.08 859.5h-6.36v-8.61H803v1.03h-5.11v2.64h4.71v1.03h-4.71v2.88h5.19v1.03zM769.17 833.41l-3.14-11.71-8.57 8.58z"/><path fill="none" stroke="#000" stroke-width="2" stroke-miterlimit="10" d="M786.46 941.46v-91l-.5-.5-32.5-32.5M804.46 941.46h-36M772.46 947.46h28M796.46 953.46h-20M792.46 959.46h-12M909.99 399.47h44v234h-44zM919.99 633.47v40H785.46v90.99l-32.5 32.5M943.99 633.47v40h135"/><path d="M918.05 620.47l.54.51c-.39.48-.56.9-.56 1.52 0 1.01.77 2.03 2.83 2.03 2.01 0 2.85-.71 2.85-1.95 0-.48-.1-.94-.32-1.34h-2.16v1.25l-.71.1v-2.21h3.31c.37.64.6 1.35.6 2.2 0 1.76-1.19 2.87-3.57 2.87-2.33 0-3.55-1.39-3.55-2.95 0-.89.26-1.45.74-2.03zM924.3 613.97v1.16l-5.93 2.9c.55-.05 1.34-.12 2.61-.12h3.32v.81h-6.88v-1.13l5.94-2.92c-.19.02-1.24.11-2.09.11h-3.85v-.81h6.88zM920.83 607.1c2.82 0 3.48 1.74 3.48 3.21v1.6h-6.88v-1.42c0-1.72.55-3.39 3.4-3.39zm-2.7 3.95h5.49v-.81c0-1.1-.48-2.21-2.79-2.21-2.37 0-2.7 1.16-2.7 2.28v.74z"/><g><path d="M943.64 623.16v-1.47h.7v1.47h1.5v.77h-1.5v1.46h-.7v-1.46h-1.5v-.77h1.5zM947.3 618.59v.84h-5.78l.97 1.58-.6.37-1.27-2.05v-.74h6.68zM942.34 613.23c1.27 0 2.14.79 4.26 2.88v-3.04l.71.1v3.9h-.67c-2.5-2.38-3.15-2.96-4.26-2.96-.73 0-1.16.46-1.16 1.13 0 .58.24.97.74 1.41l-.44.55c-.66-.54-.99-1.17-.99-2 0-1.21.78-1.97 1.81-1.97zM947.3 609.41v.94l-6.88 2.23v-.94l5.95-1.77-5.95-1.78v-.88l6.88 2.2z"/></g><g><path d="M764.96 411.46c18.47 0 33.5 15.03 33.5 33.5s-15.03 33.5-33.5 33.5-33.5-15.03-33.5-33.5 15.03-33.5 33.5-33.5m0-2c-19.61 0-35.5 15.89-35.5 35.5s15.89 35.5 35.5 35.5 35.5-15.89 35.5-35.5c0-19.6-15.9-35.5-35.5-35.5z"/><path fill="none" stroke="#000" stroke-width="2" stroke-miterlimit="10" d="M752.96 466.46v-43"/><path d="M713.09 456.26h3.79c1.61 0 2.44 1 2.44 2.17 0 .56-.2 1.36-1.15 1.8.56.23 1.56.62 1.56 2.1 0 1.38-1.02 2.54-2.93 2.54h-3.71v-8.61zm1.16 3.64h2.1c1.12 0 1.8-.34 1.8-1.39 0-.8-.49-1.26-1.79-1.26h-2.11v2.65zm0 3.97h2.48c1.21 0 1.82-.61 1.82-1.57 0-1.21-1.07-1.45-2.01-1.45h-2.29v3.02zM802.19 396.61c-.32-1.51-1.58-1.79-2.41-1.79-1.56 0-2.82 1.15-2.82 3.42 0 2.03.72 3.59 2.85 3.59.75 0 2.06-.36 2.46-2.36h1.13c-.48 3.25-3.12 3.39-3.77 3.39-1.95 0-3.87-1.27-3.87-4.58 0-2.65 1.51-4.49 4.02-4.49 2.22 0 3.37 1.38 3.54 2.82h-1.13zM803.08 497.5h-6.36v-8.61H803v1.03h-5.11v2.64h4.71v1.03h-4.71v2.88h5.19v1.03zM769.17 471.41l-3.14-11.71-8.57 8.58z"/><path fill="none" stroke="#000" stroke-width="2" stroke-miterlimit="10" d="M786.46 579.46v-91l-.5-.5-32.5-32.5M804.46 579.46h-36M772.46 585.46h28M796.46 591.46h-20M792.46 597.46h-12M909.99 37.47h44v234h-44zM919.99 271.47v40H785.46v90.99l-32.5 32.5M943.99 271.47v40h135"/><path d="M918.05 258.47l.54.51c-.39.48-.56.9-.56 1.52 0 1.01.77 2.03 2.83 2.03 2.01 0 2.85-.71 2.85-1.95 0-.48-.1-.94-.32-1.34h-2.16v1.25l-.71.1v-2.21h3.31c.37.64.6 1.35.6 2.2 0 1.76-1.19 2.87-3.57 2.87-2.33 0-3.55-1.39-3.55-2.95 0-.89.26-1.45.74-2.03zM924.3 251.97v1.16l-5.93 2.9c.55-.05 1.34-.12 2.61-.12h3.32v.81h-6.88v-1.13l5.94-2.92c-.19.02-1.24.11-2.09.11h-3.85v-.81h6.88zM920.83 245.1c2.82 0 3.48 1.74 3.48 3.21v1.6h-6.88v-1.42c0-1.72.55-3.39 3.4-3.39zm-2.7 3.95h5.49v-.81c0-1.1-.48-2.21-2.79-2.21-2.37 0-2.7 1.16-2.7 2.28v.74z"/><g><path d="M943.64 261.16v-1.47h.7v1.47h1.5v.77h-1.5v1.46h-.7v-1.46h-1.5v-.77h1.5zM947.3 256.59v.84h-5.78l.97 1.58-.6.37-1.27-2.05v-.74h6.68zM942.34 251.23c1.27 0 2.14.79 4.26 2.88v-3.04l.71.1v3.9h-.67c-2.5-2.38-3.15-2.96-4.26-2.96-.73 0-1.16.46-1.16 1.13 0 .58.24.97.74 1.41l-.44.55c-.66-.54-.99-1.17-.99-2 0-1.21.78-1.97 1.81-1.97zM947.3 247.41v.94l-6.88 2.23v-.94l5.95-1.77-5.95-1.78v-.88l6.88 2.2z"/></g></g><path fill="none" stroke="#000" stroke-width="2" stroke-miterlimit="10" d="M1079.14 311.47h0l-.5 1086.5M1220.63 926.47h-141.49"/><g fill="none" stroke="#000" stroke-width="2" stroke-miterlimit="10"><path d="M1220.89 901.47v50M1230.89 911.47v30"/></g><path fill="none" stroke="#000" stroke-width="2" stroke-miterlimit="10" d="M1373.14 1017.47v-91h-142M1391.14 1017.47h-36M1359.14 1023.47h28M1383.14 1029.47h-20M1379.14 1035.47h-12"/><g><path d="M1202.79 919.72h-.84v-5.78l-1.58.97-.37-.6 2.05-1.27h.74v6.68zM1208.14 914.75c0 1.27-.79 2.14-2.88 4.26h3.04l-.1.71h-3.9v-.67c2.38-2.5 2.96-3.15 2.96-4.26 0-.73-.46-1.16-1.13-1.16-.58 0-.97.24-1.41.74l-.55-.44c.54-.66 1.17-.99 2-.99 1.22 0 1.97.78 1.97 1.81zM1211.96 919.72h-.94l-2.23-6.88h.94l1.77 5.95 1.78-5.95h.88l-2.2 6.88z"/></g><g><path d="M1071.34 1423.42c0-1.11.75-1.89 1.8-1.89s1.77.78 1.77 1.89c0 1.08-.69 1.89-1.8 1.89-1.05 0-1.77-.81-1.77-1.89zM1077.55 1423.42c0-1.11.75-1.89 1.8-1.89s1.77.78 1.77 1.89c0 1.08-.69 1.89-1.8 1.89-1.05 0-1.77-.81-1.77-1.89zM1083.76 1423.42c0-1.11.75-1.89 1.8-1.89s1.77.78 1.77 1.89c0 1.08-.69 1.89-1.8 1.89-1.05 0-1.77-.81-1.77-1.89z"/></g><g><path d="M1071.34 285.42c0-1.11.75-1.89 1.8-1.89s1.77.78 1.77 1.89c0 1.08-.69 1.89-1.8 1.89-1.05 0-1.77-.81-1.77-1.89zM1077.55 285.42c0-1.11.75-1.89 1.8-1.89s1.77.78 1.77 1.89c0 1.08-.69 1.89-1.8 1.89-1.05 0-1.77-.81-1.77-1.89zM1083.76 285.42c0-1.11.75-1.89 1.8-1.89s1.77.78 1.77 1.89c0 1.08-.69 1.89-1.8 1.89-1.05 0-1.77-.81-1.77-1.89z"/></g><path fill="none" stroke="#000" stroke-width="2" stroke-miterlimit="10" d="M126.14 806.47h234v362h-234z"/><g><path d="M340.77 967.85c0 .86-.56 1.37-1.31 1.54.84.07 1.51.61 1.51 1.63 0 1.17-.87 2.04-2.24 2.04-.8 0-1.48-.29-1.99-.89l.51-.47c.45.47.9.67 1.45.67.87 0 1.39-.54 1.39-1.35 0-.95-.53-1.25-1.36-1.25h-.49l.1-.65h.34c.67 0 1.24-.41 1.24-1.22 0-.66-.45-1.06-1.15-1.06-.53 0-.94.18-1.4.6l-.44-.5c.56-.52 1.17-.78 1.89-.78 1.25 0 1.95.78 1.95 1.69z"/></g><g><path d="M340.87 927.97c0 1.27-.79 2.14-2.88 4.26h3.04l-.1.71h-3.9v-.67c2.38-2.5 2.96-3.15 2.96-4.26 0-.73-.46-1.16-1.13-1.16-.58 0-.97.24-1.41.74l-.55-.44c.54-.66 1.17-.99 2-.99 1.21 0 1.97.78 1.97 1.81z"/></g><g><path d="M340.73 1046.92h-2.64v2.04c.35-.18.71-.27 1.09-.27 1.13 0 1.89.79 1.89 2.11 0 1.33-.9 2.26-2.28 2.26-.84 0-1.44-.32-1.95-.84l.5-.49c.42.43.85.64 1.45.64.86 0 1.41-.58 1.41-1.59 0-1.05-.55-1.43-1.27-1.43-.38 0-.65.08-.98.25h-.66v-3.34h3.56l-.12.66z"/></g><g><path d="M148.1 1046.68l-.51.54c-.48-.39-.9-.56-1.52-.56-1.01 0-2.03.77-2.03 2.83 0 2.01.71 2.85 1.95 2.85.48 0 .94-.1 1.34-.32v-2.16h-1.25l-.1-.71h2.21v3.31c-.64.37-1.35.6-2.2.6-1.76 0-2.87-1.19-2.87-3.57 0-2.33 1.39-3.55 2.95-3.55.89 0 1.45.26 2.03.74zM154.6 1052.94h-1.16l-2.9-5.93c.05.55.12 1.34.12 2.61v3.32h-.81v-6.88h1.13l2.92 5.94c-.02-.19-.11-1.24-.11-2.09v-3.85h.81v6.88zM161.47 1049.46c0 2.82-1.74 3.48-3.21 3.48h-1.6v-6.88h1.42c1.72 0 3.39.55 3.39 3.4zm-3.95-2.7v5.49h.81c1.1 0 2.21-.48 2.21-2.79 0-2.37-1.16-2.7-2.28-2.7h-.74z"/></g><g><path d="M186.85 884.42h-5.36l-1.08 3.52h-1.76l4.46-13.76h2.2l4.44 13.76h-1.84l-1.06-3.52zm-.44-1.42l-2.24-7.38-2.26 7.38h4.5zM197.35 877.3l-.3 1.64c-.32-.08-.54-.12-.92-.12-1.34 0-2.1.94-2.58 2.96v6.16h-1.68v-10.52h1.44l.16 2.2c.56-1.62 1.54-2.44 2.84-2.44.36 0 .74.04 1.04.12zM206.91 873.17v14.76h-1.46l-.18-1.48c-.66 1.04-1.72 1.72-3.06 1.72-2.54 0-3.96-2.16-3.96-5.46 0-3.22 1.54-5.54 4.12-5.54 1.28 0 2.18.6 2.86 1.32v-5.52l1.68.2zm-1.68 12.01v-5.24c-.64-.86-1.4-1.42-2.5-1.42-1.64 0-2.68 1.38-2.68 4.18s.92 4.14 2.5 4.14c1.22 0 1.98-.6 2.68-1.66zM218.55 887.94h-1.44l-.14-1.7c-.78 1.28-1.78 1.94-3.3 1.94-1.86 0-2.94-1.16-2.94-3.22v-7.54h1.68v7.36c0 1.5.52 2.06 1.72 2.06s2.08-.78 2.74-1.88v-7.54h1.68v10.52zM224.47 873.62c0 .66-.48 1.16-1.2 1.16-.7 0-1.18-.5-1.18-1.16s.48-1.16 1.18-1.16c.72 0 1.2.5 1.2 1.16zm-.34 14.32h-1.68v-10.52h1.68v10.52zM235.93 880.4v7.54h-1.68v-7.3c0-1.62-.66-2.14-1.74-2.14-1.24 0-2.08.78-2.8 1.94v7.5h-1.68v-10.52h1.44l.14 1.58c.78-1.08 1.88-1.82 3.3-1.82 1.92 0 3.02 1.22 3.02 3.22zM248.21 882.66c0 3.3-1.7 5.52-4.64 5.52-2.94 0-4.62-2.14-4.62-5.48 0-3.3 1.7-5.52 4.64-5.52 2.96 0 4.62 2.12 4.62 5.48zm-7.46.04c0 2.78 1 4.12 2.82 4.12 1.82 0 2.84-1.34 2.84-4.16 0-2.78-1-4.12-2.82-4.12-1.8 0-2.84 1.34-2.84 4.16zM265.29 882.66c0 3.32-1.54 5.52-4.1 5.52-1.2 0-2.12-.56-2.84-1.42l-.18 1.18h-1.46v-14.76l1.68-.2v5.78c.72-.98 1.72-1.58 3.02-1.58 2.38 0 3.88 1.98 3.88 5.48zm-1.8 0c0-3.02-1-4.14-2.54-4.14-1.2 0-2 .8-2.56 1.68v5.18c.56.86 1.42 1.46 2.42 1.46 1.6 0 2.68-1.26 2.68-4.18zM277.01 882.66c0 3.3-1.7 5.52-4.64 5.52-2.94 0-4.62-2.14-4.62-5.48 0-3.3 1.7-5.52 4.64-5.52 2.96 0 4.62 2.12 4.62 5.48zm-7.46.04c0 2.78 1 4.12 2.82 4.12 1.82 0 2.84-1.34 2.84-4.16 0-2.78-1-4.12-2.82-4.12-1.8 0-2.84 1.34-2.84 4.16zM287.79 887l-.4 1.18c-1.02-.14-1.68-.56-1.96-1.62-.74 1.12-1.86 1.62-3.16 1.62-2.08 0-3.32-1.3-3.32-3.18 0-2.24 1.68-3.44 4.56-3.44h1.72v-.84c0-1.56-.74-2.16-2.26-2.16-.8 0-1.76.2-2.84.58l-.42-1.24c1.26-.48 2.4-.72 3.56-.72 2.5 0 3.64 1.28 3.64 3.46v4.88c0 .98.32 1.28.88 1.48zm-2.56-1.82v-2.5h-1.5c-1.96 0-3 .74-3 2.24 0 1.28.66 1.98 1.92 1.98 1.14 0 1.98-.58 2.58-1.72zM296.27 877.3l-.3 1.64c-.32-.08-.54-.12-.92-.12-1.34 0-2.1.94-2.58 2.96v6.16h-1.68v-10.52h1.44l.16 2.2c.56-1.62 1.54-2.44 2.84-2.44.36 0 .74.04 1.04.12zM305.83 873.17v14.76h-1.46l-.18-1.48c-.66 1.04-1.72 1.72-3.06 1.72-2.54 0-3.96-2.16-3.96-5.46 0-3.22 1.54-5.54 4.12-5.54 1.28 0 2.18.6 2.86 1.32v-5.52l1.68.2zm-1.68 12.01v-5.24c-.64-.86-1.4-1.42-2.5-1.42-1.64 0-2.68 1.38-2.68 4.18s.92 4.14 2.5 4.14c1.22 0 1.98-.6 2.68-1.66z"/></g><g><path d="M936.06 1280.22v-5.68l1.52.2v7.2h-13.76v-1.72h12.24zM925.21 1264.94v5.42h4.64v-4.7h1.4v4.7h4.92v-5.76h1.4v7.48h-13.76v-7.34l1.4.2zM930.62 1251.86c5.64 0 6.96 3.48 6.96 6.42v3.2h-13.76v-2.84c-.01-3.44 1.1-6.78 6.8-6.78zm-5.41 7.9h10.98v-1.62c0-2.2-.96-4.42-5.58-4.42-4.74 0-5.4 2.32-5.4 4.56v1.48zM928.02 1237.1l1.06.72c-.62.94-.92 1.74-.92 2.74 0 1.24.58 2.04 1.48 2.04s1.3-.6 1.76-2.34c.58-2.22 1.42-3.46 3.26-3.46 2.14 0 3.16 1.94 3.16 4.06 0 1.78-.58 3.02-1.38 3.94l-1.02-.9c.64-.86 1.04-1.82 1.04-3 0-1.4-.64-2.34-1.7-2.34-1.1 0-1.5.54-2.06 2.62-.6 2.26-1.54 3.16-3.02 3.16-1.66 0-2.86-1.58-2.86-3.72 0-1.44.44-2.52 1.2-3.52zM937.12 1228.9c.46.68.7 1.44.7 2.32 0 1.74-1.02 2.78-2.94 2.78h-6.52v1.82h-1.3V1234h-2.42l-.18-1.68h2.6v-2.54l1.3.18v2.36h6.44c1.1 0 1.62-.38 1.62-1.32 0-.5-.14-.94-.44-1.46l1.14-.64zM926.94 1221.48l1.64.3c-.08.32-.12.54-.12.92 0 1.34.94 2.1 2.96 2.58h6.16v1.68h-10.52v-1.44l2.2-.16c-1.62-.56-2.44-1.54-2.44-2.84 0-.36.04-.74.12-1.04zM923.25 1217.28c.66 0 1.16.48 1.16 1.2 0 .7-.5 1.18-1.16 1.18s-1.16-.48-1.16-1.18c0-.72.5-1.2 1.16-1.2zm14.33.34v1.68h-10.52v-1.68h10.52zM932.3 1205.14c3.22 0 5.52 1.4 5.52 4.1 0 1.18-.42 2.14-1.24 2.8h5.02l.2 1.68h-14.74v-1.44l1.46-.14c-1.08-.76-1.7-1.88-1.7-3.12 0-2.76 2.14-3.88 5.48-3.88zm0 1.8c-2.8 0-4.14.84-4.14 2.48 0 1.16.8 2.04 1.68 2.62h5.26c.84-.56 1.34-1.4 1.34-2.42 0-1.74-1.32-2.68-4.14-2.68zM932.9 1194.12v6.78c2.54-.18 3.54-1.34 3.54-2.94 0-1.06-.3-1.84-.94-2.76l1-.74c.82 1.02 1.32 2.18 1.32 3.62 0 2.9-2.06 4.6-5.4 4.6-3.3 0-5.6-1.64-5.6-4.32 0-2.82 1.98-4.28 5.16-4.28.36 0 .7.02.92.04zm-1.4 1.62c-2.12 0-3.34.84-3.34 2.58 0 1.46 1.04 2.44 3.5 2.58v-5.16h-.16z"/></g><g><path d="M341.22 1011.27h-.87v1.67h-.82v-1.67h-2.87v-.61l2.02-4.5.7.29-1.83 4.14h1.99l.08-1.83h.73v1.83h.87v.68z"/></g><path fill="none" stroke="#000" stroke-width="2" stroke-miterlimit="10" d="M360.14 929.47h66v-485h327"/><path fill="none" stroke="#000" stroke-width="2" stroke-miterlimit="10" d="M752.96 806.96H490.14v162.51h-130M753.14 1168.96h-263v-159.49h-130"/><path fill="none" stroke="#000" stroke-width="2" stroke-miterlimit="10" d="M360.14 1049.94l66-.47v481l-.18.49h327M60.14 1141.47v-91.53l66-.47M78.14 1141.47h-36M46.14 1147.47h28M70.14 1153.47h-20M66.14 1159.47h-12"/><g><path d="M936.06 918.22v-5.68l1.52.2v7.2h-13.76v-1.72h12.24zM925.21 902.94v5.42h4.64v-4.7h1.4v4.7h4.92v-5.76h1.4v7.48h-13.76v-7.34l1.4.2zM930.62 889.86c5.64 0 6.96 3.48 6.96 6.42v3.2h-13.76v-2.84c-.01-3.44 1.1-6.78 6.8-6.78zm-5.41 7.9h10.98v-1.62c0-2.2-.96-4.42-5.58-4.42-4.74 0-5.4 2.32-5.4 4.56v1.48zM928.02 875.1l1.06.72c-.62.94-.92 1.74-.92 2.74 0 1.24.58 2.04 1.48 2.04s1.3-.6 1.76-2.34c.58-2.22 1.42-3.46 3.26-3.46 2.14 0 3.16 1.94 3.16 4.06 0 1.78-.58 3.02-1.38 3.94l-1.02-.9c.64-.86 1.04-1.82 1.04-3 0-1.4-.64-2.34-1.7-2.34-1.1 0-1.5.54-2.06 2.62-.6 2.26-1.54 3.16-3.02 3.16-1.66 0-2.86-1.58-2.86-3.72 0-1.44.44-2.52 1.2-3.52zM937.12 866.9c.46.68.7 1.44.7 2.32 0 1.74-1.02 2.78-2.94 2.78h-6.52v1.82h-1.3V872h-2.42l-.18-1.68h2.6v-2.54l1.3.18v2.36h6.44c1.1 0 1.62-.38 1.62-1.32 0-.5-.14-.94-.44-1.46l1.14-.64zM926.94 859.48l1.64.3c-.08.32-.12.54-.12.92 0 1.34.94 2.1 2.96 2.58h6.16v1.68h-10.52v-1.44l2.2-.16c-1.62-.56-2.44-1.54-2.44-2.84 0-.36.04-.74.12-1.04zM923.25 855.28c.66 0 1.16.48 1.16 1.2 0 .7-.5 1.18-1.16 1.18s-1.16-.48-1.16-1.18c0-.72.5-1.2 1.16-1.2zm14.33.34v1.68h-10.52v-1.68h10.52zM932.3 843.14c3.22 0 5.52 1.4 5.52 4.1 0 1.18-.42 2.14-1.24 2.8h5.02l.2 1.68h-14.74v-1.44l1.46-.14c-1.08-.76-1.7-1.88-1.7-3.12 0-2.76 2.14-3.88 5.48-3.88zm0 1.8c-2.8 0-4.14.84-4.14 2.48 0 1.16.8 2.04 1.68 2.62h5.26c.84-.56 1.34-1.4 1.34-2.42 0-1.74-1.32-2.68-4.14-2.68zM932.9 832.12v6.78c2.54-.18 3.54-1.34 3.54-2.94 0-1.06-.3-1.84-.94-2.76l1-.74c.82 1.02 1.32 2.18 1.32 3.62 0 2.9-2.06 4.6-5.4 4.6-3.3 0-5.6-1.64-5.6-4.32 0-2.82 1.98-4.28 5.16-4.28.36 0 .7.02.92.04zm-1.4 1.62c-2.12 0-3.34.84-3.34 2.58 0 1.46 1.04 2.44 3.5 2.58v-5.16h-.16z"/></g><g><path d="M936.06 556.22v-5.68l1.52.2v7.2h-13.76v-1.72h12.24zM925.21 540.94v5.42h4.64v-4.7h1.4v4.7h4.92v-5.76h1.4v7.48h-13.76v-7.34l1.4.2zM930.62 527.86c5.64 0 6.96 3.48 6.96 6.42v3.2h-13.76v-2.84c-.01-3.44 1.1-6.78 6.8-6.78zm-5.41 7.9h10.98v-1.62c0-2.2-.96-4.42-5.58-4.42-4.74 0-5.4 2.32-5.4 4.56v1.48zM928.02 513.1l1.06.72c-.62.94-.92 1.74-.92 2.74 0 1.24.58 2.04 1.48 2.04s1.3-.6 1.76-2.34c.58-2.22 1.42-3.46 3.26-3.46 2.14 0 3.16 1.94 3.16 4.06 0 1.78-.58 3.02-1.38 3.94l-1.02-.9c.64-.86 1.04-1.82 1.04-3 0-1.4-.64-2.34-1.7-2.34-1.1 0-1.5.54-2.06 2.62-.6 2.26-1.54 3.16-3.02 3.16-1.66 0-2.86-1.58-2.86-3.72 0-1.44.44-2.52 1.2-3.52zM937.12 504.9c.46.68.7 1.44.7 2.32 0 1.74-1.02 2.78-2.94 2.78h-6.52v1.82h-1.3V510h-2.42l-.18-1.68h2.6v-2.54l1.3.18v2.36h6.44c1.1 0 1.62-.38 1.62-1.32 0-.5-.14-.94-.44-1.46l1.14-.64zM926.94 497.48l1.64.3c-.08.32-.12.54-.12.92 0 1.34.94 2.1 2.96 2.58h6.16v1.68h-10.52v-1.44l2.2-.16c-1.62-.56-2.44-1.54-2.44-2.84 0-.36.04-.74.12-1.04zM923.25 493.28c.66 0 1.16.48 1.16 1.2 0 .7-.5 1.18-1.16 1.18s-1.16-.48-1.16-1.18c0-.72.5-1.2 1.16-1.2zm14.33.34v1.68h-10.52v-1.68h10.52zM932.3 481.14c3.22 0 5.52 1.4 5.52 4.1 0 1.18-.42 2.14-1.24 2.8h5.02l.2 1.68h-14.74v-1.44l1.46-.14c-1.08-.76-1.7-1.88-1.7-3.12 0-2.76 2.14-3.88 5.48-3.88zm0 1.8c-2.8 0-4.14.84-4.14 2.48 0 1.16.8 2.04 1.68 2.62h5.26c.84-.56 1.34-1.4 1.34-2.42 0-1.74-1.32-2.68-4.14-2.68zM932.9 470.12v6.78c2.54-.18 3.54-1.34 3.54-2.94 0-1.06-.3-1.84-.94-2.76l1-.74c.82 1.02 1.32 2.18 1.32 3.62 0 2.9-2.06 4.6-5.4 4.6-3.3 0-5.6-1.64-5.6-4.32 0-2.82 1.98-4.28 5.16-4.28.36 0 .7.02.92.04zm-1.4 1.62c-2.12 0-3.34.84-3.34 2.58 0 1.46 1.04 2.44 3.5 2.58v-5.16h-.16z"/></g><g><path d="M936.06 194.22v-5.68l1.52.2v7.2h-13.76v-1.72h12.24zM925.21 178.94v5.42h4.64v-4.7h1.4v4.7h4.92v-5.76h1.4v7.48h-13.76v-7.34l1.4.2zM930.62 165.86c5.64 0 6.96 3.48 6.96 6.42v3.2h-13.76v-2.84c-.01-3.44 1.1-6.78 6.8-6.78zm-5.41 7.9h10.98v-1.62c0-2.2-.96-4.42-5.58-4.42-4.74 0-5.4 2.32-5.4 4.56v1.48zM928.02 151.1l1.06.72c-.62.94-.92 1.74-.92 2.74 0 1.24.58 2.04 1.48 2.04s1.3-.6 1.76-2.34c.58-2.22 1.42-3.46 3.26-3.46 2.14 0 3.16 1.94 3.16 4.06 0 1.78-.58 3.02-1.38 3.94l-1.02-.9c.64-.86 1.04-1.82 1.04-3 0-1.4-.64-2.34-1.7-2.34-1.1 0-1.5.54-2.06 2.62-.6 2.26-1.54 3.16-3.02 3.16-1.66 0-2.86-1.58-2.86-3.72 0-1.44.44-2.52 1.2-3.52zM937.12 142.9c.46.68.7 1.44.7 2.32 0 1.74-1.02 2.78-2.94 2.78h-6.52v1.82h-1.3V148h-2.42l-.18-1.68h2.6v-2.54l1.3.18v2.36h6.44c1.1 0 1.62-.38 1.62-1.32 0-.5-.14-.94-.44-1.46l1.14-.64zM926.94 135.48l1.64.3c-.08.32-.12.54-.12.92 0 1.34.94 2.1 2.96 2.58h6.16v1.68h-10.52v-1.44l2.2-.16c-1.62-.56-2.44-1.54-2.44-2.84 0-.36.04-.74.12-1.04zM923.25 131.28c.66 0 1.16.48 1.16 1.2 0 .7-.5 1.18-1.16 1.18s-1.16-.48-1.16-1.18c0-.72.5-1.2 1.16-1.2zm14.33.34v1.68h-10.52v-1.68h10.52zM932.3 119.14c3.22 0 5.52 1.4 5.52 4.1 0 1.18-.42 2.14-1.24 2.8h5.02l.2 1.68h-14.74v-1.44l1.46-.14c-1.08-.76-1.7-1.88-1.7-3.12 0-2.76 2.14-3.88 5.48-3.88zm0 1.8c-2.8 0-4.14.84-4.14 2.48 0 1.16.8 2.04 1.68 2.62h5.26c.84-.56 1.34-1.4 1.34-2.42 0-1.74-1.32-2.68-4.14-2.68zM932.9 108.12v6.78c2.54-.18 3.54-1.34 3.54-2.94 0-1.06-.3-1.84-.94-2.76l1-.74c.82 1.02 1.32 2.18 1.32 3.62 0 2.9-2.06 4.6-5.4 4.6-3.3 0-5.6-1.64-5.6-4.32 0-2.82 1.98-4.28 5.16-4.28.36 0 .7.02.92.04zm-1.4 1.62c-2.12 0-3.34.84-3.34 2.58 0 1.46 1.04 2.44 3.5 2.58v-5.16h-.16z"/></g></svg>