<svg xmlns="http://www.w3.org/2000/svg" viewBox="0 0 1384 581"><path d="M152.55 39.2c0 4.29-3.27 5.85-8.01 5.85h-5.67V24.41h4.8c5.01 0 7.95 1.62 7.95 5.19 0 2.58-1.8 4.11-3.84 4.53 2.43.39 4.77 1.56 4.77 5.07zm-11.1-12.72v6.75h3.36c2.37 0 4.14-1.2 4.14-3.45 0-2.58-1.86-3.3-5.01-3.3h-2.49zm8.34 12.72c0-2.94-2.16-3.96-4.71-3.96h-3.63v7.71h3.09c3.09 0 5.25-.72 5.25-3.75zM168.57 38.03H158.4c.27 3.81 2.01 5.31 4.41 5.31 1.59 0 2.76-.45 4.14-1.41l1.11 1.5c-1.53 1.23-3.27 1.98-5.43 1.98-4.35 0-6.9-3.09-6.9-8.1 0-4.95 2.46-8.4 6.48-8.4 4.23 0 6.42 2.97 6.42 7.74 0 .54-.03 1.05-.06 1.38zm-2.43-2.1c0-3.18-1.26-5.01-3.87-5.01-2.19 0-3.66 1.56-3.87 5.25h7.74v-.24zM184.65 43.64l-.6 1.77c-1.53-.21-2.52-.84-2.94-2.43-1.11 1.68-2.79 2.43-4.74 2.43-3.12 0-4.98-1.95-4.98-4.77 0-3.36 2.52-5.16 6.84-5.16h2.58v-1.26c0-2.34-1.11-3.24-3.39-3.24-1.2 0-2.64.3-4.26.87l-.63-1.86c1.89-.72 3.6-1.08 5.34-1.08 3.75 0 5.46 1.92 5.46 5.19v7.32c0 1.47.48 1.92 1.32 2.22zm-3.84-2.73v-3.75h-2.25c-2.94 0-4.5 1.11-4.5 3.36 0 1.92.99 2.97 2.88 2.97 1.71 0 2.97-.87 3.87-2.58zM196.92 44.36c-1.02.69-2.16 1.05-3.48 1.05-2.61 0-4.17-1.53-4.17-4.41v-9.78h-2.73v-1.95h2.73v-3.63l2.52-.27v3.9h3.81l-.27 1.95h-3.54v9.66c0 1.65.57 2.43 1.98 2.43.75 0 1.41-.21 2.19-.66l.96 1.71zM217.62 31.61l-.87 6.51h2.07v1.92h-2.31l-.66 5.01h-2.16l.66-5.01h-4.83l-.66 5.01h-2.16l.66-5.01h-1.98v-1.92h2.22l.87-6.51h-1.98v-1.95h2.25l.6-4.65h2.16l-.6 4.65h4.83l.6-4.65h2.16l-.6 4.65h2.04v1.95h-2.31zm-2.16 0h-4.83l-.87 6.51h4.83l.87-6.51zM229.86 45.05h-2.52V27.71l-4.74 2.91-1.11-1.8 6.15-3.81h2.22v20.04z"/><path fill="none" stroke="#000" stroke-width="2" stroke-miterlimit="10" d="M30 123v31M692 123v31"/><path d="M36.6 184.2c0 6.66-2.19 10.35-6.6 10.35s-6.6-3.69-6.6-10.38c0-6.69 2.19-10.32 6.6-10.32s6.6 3.66 6.6 10.35zm-10.59-.03c0 5.97 1.38 8.37 3.99 8.37 2.58 0 3.99-2.4 3.99-8.34 0-5.97-1.41-8.34-3.99-8.34-2.61 0-3.99 2.37-3.99 8.31zM69.27 182.88v11.31h-2.52v-10.95c0-2.43-1.02-3.21-2.31-3.21-1.77 0-2.79 1.17-3.9 2.91v11.25h-2.52v-10.95c0-2.43-1.02-3.21-2.31-3.21-1.74 0-2.79 1.17-3.87 2.91v11.25h-2.52v-15.78h2.16l.21 2.37c1.11-1.62 2.58-2.73 4.62-2.73 1.98 0 3.39 1.11 3.96 2.94 1.14-1.74 2.64-2.94 4.77-2.94 2.58 0 4.23 1.86 4.23 4.83zM84.45 179.85l-1.08 1.59c-1.41-.93-2.61-1.38-4.11-1.38-1.86 0-3.06.87-3.06 2.22s.9 1.95 3.51 2.64c3.33.87 5.19 2.13 5.19 4.89 0 3.21-2.91 4.74-6.09 4.74-2.67 0-4.53-.87-5.91-2.07l1.35-1.53c1.29.96 2.73 1.56 4.5 1.56 2.1 0 3.51-.96 3.51-2.55 0-1.65-.81-2.25-3.93-3.09-3.39-.9-4.74-2.31-4.74-4.53 0-2.49 2.37-4.29 5.58-4.29 2.16 0 3.78.66 5.28 1.8zM647.17 194.19h-2.52v-17.34l-4.74 2.91-1.11-1.8 6.15-3.81h2.22v20.04zM663.25 179.28c0 3.81-2.37 6.42-8.64 12.78h9.12l-.3 2.13h-11.7v-2.01c7.14-7.5 8.88-9.45 8.88-12.78 0-2.19-1.38-3.48-3.39-3.48-1.74 0-2.91.72-4.23 2.22l-1.65-1.32c1.62-1.98 3.51-2.97 6-2.97 3.62 0 5.91 2.34 5.91 5.43zM680.19 184.2c0 6.66-2.19 10.35-6.6 10.35s-6.6-3.69-6.6-10.38c0-6.69 2.19-10.32 6.6-10.32s6.6 3.66 6.6 10.35zm-10.59-.03c0 5.97 1.38 8.37 3.99 8.37 2.58 0 3.99-2.4 3.99-8.34 0-5.97-1.41-8.34-3.99-8.34-2.6 0-3.99 2.37-3.99 8.31zM696.87 184.2c0 6.66-2.19 10.35-6.6 10.35s-6.6-3.69-6.6-10.38c0-6.69 2.19-10.32 6.6-10.32s6.6 3.66 6.6 10.35zm-10.59-.03c0 5.97 1.38 8.37 3.99 8.37 2.58 0 3.99-2.4 3.99-8.34 0-5.97-1.41-8.34-3.99-8.34-2.6 0-3.99 2.37-3.99 8.31zM729.54 182.88v11.31h-2.52v-10.95c0-2.43-1.02-3.21-2.31-3.21-1.77 0-2.79 1.17-3.9 2.91v11.25h-2.52v-10.95c0-2.43-1.02-3.21-2.31-3.21-1.74 0-2.79 1.17-3.87 2.91v11.25h-2.52v-15.78h2.16l.21 2.37c1.11-1.62 2.58-2.73 4.62-2.73 1.98 0 3.39 1.11 3.96 2.94 1.14-1.74 2.64-2.94 4.77-2.94 2.58 0 4.23 1.86 4.23 4.83zM744.72 179.85l-1.08 1.59c-1.41-.93-2.61-1.38-4.11-1.38-1.86 0-3.06.87-3.06 2.22s.9 1.95 3.51 2.64c3.33.87 5.19 2.13 5.19 4.89 0 3.21-2.91 4.74-6.09 4.74-2.67 0-4.53-.87-5.91-2.07l1.35-1.53c1.29.96 2.73 1.56 4.5 1.56 2.1 0 3.51-.96 3.51-2.55 0-1.65-.81-2.25-3.93-3.09-3.39-.9-4.74-2.31-4.74-4.53 0-2.49 2.37-4.29 5.58-4.29 2.16 0 3.78.66 5.28 1.8z"/><path fill="none" stroke="#000" stroke-width="2" stroke-miterlimit="10" d="M1357 123v31"/><path d="M1263.87 179.28c0 3.81-2.37 6.42-8.64 12.78h9.12l-.3 2.13h-11.7v-2.01c7.14-7.5 8.88-9.45 8.88-12.78 0-2.19-1.38-3.48-3.39-3.48-1.74 0-2.91.72-4.23 2.22l-1.65-1.32c1.62-1.98 3.51-2.97 6-2.97 3.63 0 5.91 2.34 5.91 5.43zM1279.98 189.18h-2.61v5.01h-2.46v-5.01h-8.61v-1.83l6.06-13.5 2.1.87-5.49 12.42h5.97l.24-5.49h2.19v5.49h2.61v2.04zM1295.88 184.2c0 6.66-2.19 10.35-6.6 10.35s-6.6-3.69-6.6-10.38c0-6.69 2.19-10.32 6.6-10.32s6.6 3.66 6.6 10.35zm-10.59-.03c0 5.97 1.38 8.37 3.99 8.37 2.58 0 3.99-2.4 3.99-8.34 0-5.97-1.41-8.34-3.99-8.34-2.61 0-3.99 2.37-3.99 8.31zM1312.56 184.2c0 6.66-2.19 10.35-6.6 10.35s-6.6-3.69-6.6-10.38c0-6.69 2.19-10.32 6.6-10.32s6.6 3.66 6.6 10.35zm-10.59-.03c0 5.97 1.38 8.37 3.99 8.37 2.58 0 3.99-2.4 3.99-8.34 0-5.97-1.41-8.34-3.99-8.34-2.61 0-3.99 2.37-3.99 8.31zM1345.23 182.88v11.31h-2.52v-10.95c0-2.43-1.02-3.21-2.31-3.21-1.77 0-2.79 1.17-3.9 2.91v11.25h-2.52v-10.95c0-2.43-1.02-3.21-2.31-3.21-1.74 0-2.79 1.17-3.87 2.91v11.25h-2.52v-15.78h2.16l.21 2.37c1.11-1.62 2.58-2.73 4.62-2.73 1.98 0 3.39 1.11 3.96 2.94 1.14-1.74 2.64-2.94 4.77-2.94 2.58 0 4.23 1.86 4.23 4.83zM1360.41 179.85l-1.08 1.59c-1.41-.93-2.61-1.38-4.11-1.38-1.86 0-3.06.87-3.06 2.22s.9 1.95 3.51 2.64c3.33.87 5.19 2.13 5.19 4.89 0 3.21-2.91 4.74-6.09 4.74-2.67 0-4.53-.87-5.91-2.07l1.35-1.53c1.29.96 2.73 1.56 4.5 1.56 2.1 0 3.51-.96 3.51-2.55 0-1.65-.81-2.25-3.93-3.09-3.39-.9-4.74-2.31-4.74-4.53 0-2.49 2.37-4.29 5.58-4.29 2.16 0 3.78.66 5.28 1.8z"/><path fill="none" stroke="#000" stroke-width="2" stroke-miterlimit="10" d="M32 74h305v26H32zM32 238h1325v72H32z"/><path d="M491.74 39.2c0 4.29-3.27 5.85-8.01 5.85h-5.67V24.41h4.8c5.01 0 7.95 1.62 7.95 5.19 0 2.58-1.8 4.11-3.84 4.53 2.43.39 4.77 1.56 4.77 5.07zm-11.1-12.72v6.75H484c2.37 0 4.14-1.2 4.14-3.45 0-2.58-1.86-3.3-5.01-3.3h-2.49zm8.34 12.72c0-2.94-2.16-3.96-4.71-3.96h-3.63v7.71h3.09c3.09 0 5.25-.72 5.25-3.75zM507.76 38.03h-10.17c.27 3.81 2.01 5.31 4.41 5.31 1.59 0 2.76-.45 4.14-1.41l1.11 1.5c-1.53 1.23-3.27 1.98-5.43 1.98-4.35 0-6.9-3.09-6.9-8.1 0-4.95 2.46-8.4 6.48-8.4 4.23 0 6.42 2.97 6.42 7.74 0 .54-.03 1.05-.06 1.38zm-2.43-2.1c0-3.18-1.26-5.01-3.87-5.01-2.19 0-3.66 1.56-3.87 5.25h7.74v-.24zM523.84 43.64l-.6 1.77c-1.53-.21-2.52-.84-2.94-2.43-1.11 1.68-2.79 2.43-4.74 2.43-3.12 0-4.98-1.95-4.98-4.77 0-3.36 2.52-5.16 6.84-5.16H520v-1.26c0-2.34-1.11-3.24-3.39-3.24-1.2 0-2.64.3-4.26.87l-.63-1.86c1.89-.72 3.6-1.08 5.34-1.08 3.75 0 5.46 1.92 5.46 5.19v7.32c0 1.47.48 1.92 1.32 2.22zM520 40.91v-3.75h-2.25c-2.94 0-4.5 1.11-4.5 3.36 0 1.92.99 2.97 2.88 2.97 1.71 0 2.97-.87 3.87-2.58zM536.11 44.36c-1.02.69-2.16 1.05-3.48 1.05-2.61 0-4.17-1.53-4.17-4.41v-9.78h-2.73v-1.95h2.73v-3.63l2.52-.27v3.9h3.81l-.27 1.95h-3.54v9.66c0 1.65.57 2.43 1.98 2.43.75 0 1.41-.21 2.19-.66l.96 1.71zM556.81 31.61l-.87 6.51h2.07v1.92h-2.31l-.66 5.01h-2.16l.66-5.01h-4.83l-.66 5.01h-2.16l.66-5.01h-1.98v-1.92h2.22l.87-6.51h-1.98v-1.95h2.25l.6-4.65h2.16l-.6 4.65h4.83l.6-4.65h2.16l-.6 4.65h2.04v1.95h-2.31zm-2.16 0h-4.83l-.87 6.51h4.83l.87-6.51zM572.02 30.14c0 3.81-2.37 6.42-8.64 12.78h9.12l-.3 2.13h-11.7v-2.01c7.14-7.5 8.88-9.45 8.88-12.78 0-2.19-1.38-3.48-3.39-3.48-1.74 0-2.91.72-4.23 2.22l-1.65-1.32c1.62-1.98 3.51-2.97 6-2.97 3.63 0 5.91 2.34 5.91 5.43z"/><path fill="none" stroke="#000" stroke-width="2" stroke-miterlimit="10" d="M372 74h305v26H372z"/><path d="M831.67 39.2c0 4.29-3.27 5.85-8.01 5.85h-5.67V24.41h4.8c5.01 0 7.95 1.62 7.95 5.19 0 2.58-1.8 4.11-3.84 4.53 2.43.39 4.77 1.56 4.77 5.07zm-11.1-12.72v6.75h3.36c2.37 0 4.14-1.2 4.14-3.45 0-2.58-1.86-3.3-5.01-3.3h-2.49zm8.34 12.72c0-2.94-2.16-3.96-4.71-3.96h-3.63v7.71h3.09c3.09 0 5.25-.72 5.25-3.75zM847.69 38.03h-10.17c.27 3.81 2.01 5.31 4.41 5.31 1.59 0 2.76-.45 4.14-1.41l1.11 1.5c-1.53 1.23-3.27 1.98-5.43 1.98-4.35 0-6.9-3.09-6.9-8.1 0-4.95 2.46-8.4 6.48-8.4 4.23 0 6.42 2.97 6.42 7.74 0 .54-.04 1.05-.06 1.38zm-2.43-2.1c0-3.18-1.26-5.01-3.87-5.01-2.19 0-3.66 1.56-3.87 5.25h7.74v-.24zM863.77 43.64l-.6 1.77c-1.53-.21-2.52-.84-2.94-2.43-1.11 1.68-2.79 2.43-4.74 2.43-3.12 0-4.98-1.95-4.98-4.77 0-3.36 2.52-5.16 6.84-5.16h2.58v-1.26c0-2.34-1.11-3.24-3.39-3.24-1.2 0-2.64.3-4.26.87l-.63-1.86c1.89-.72 3.6-1.08 5.34-1.08 3.75 0 5.46 1.92 5.46 5.19v7.32c0 1.47.48 1.92 1.32 2.22zm-3.84-2.73v-3.75h-2.25c-2.94 0-4.5 1.11-4.5 3.36 0 1.92.99 2.97 2.88 2.97 1.71 0 2.97-.87 3.87-2.58zM876.04 44.36c-1.02.69-2.16 1.05-3.48 1.05-2.61 0-4.17-1.53-4.17-4.41v-9.78h-2.73v-1.95h2.73v-3.63l2.52-.27v3.9h3.81l-.27 1.95h-3.54v9.66c0 1.65.57 2.43 1.98 2.43.75 0 1.41-.21 2.19-.66l.96 1.71zM896.73 31.61l-.87 6.51h2.07v1.92h-2.31l-.66 5.01h-2.16l.66-5.01h-4.83l-.66 5.01h-2.16l.66-5.01h-1.98v-1.92h2.22l.87-6.51h-1.98v-1.95h2.25l.6-4.65h2.16l-.6 4.65h4.83l.6-4.65h2.16l-.6 4.65h2.04v1.95h-2.31zm-2.16 0h-4.83l-.87 6.51h4.83l.87-6.51zM911.79 29.78c0 2.58-1.68 4.11-3.93 4.62 2.52.21 4.53 1.83 4.53 4.89 0 3.51-2.61 6.12-6.72 6.12-2.4 0-4.44-.87-5.97-2.67l1.53-1.41c1.35 1.41 2.7 2.01 4.35 2.01 2.61 0 4.17-1.62 4.17-4.05 0-2.85-1.59-3.75-4.08-3.75h-1.47l.3-1.95h1.02c2.01 0 3.72-1.23 3.72-3.66 0-1.98-1.35-3.18-3.45-3.18-1.59 0-2.82.54-4.2 1.8l-1.32-1.5c1.68-1.56 3.51-2.34 5.67-2.34 3.76 0 5.85 2.34 5.85 5.07z"/><path fill="none" stroke="#000" stroke-width="2" stroke-miterlimit="10" d="M712 74h305v26H712z"/><path d="M1171.04 39.2c0 4.29-3.27 5.85-8.01 5.85h-5.67V24.41h4.8c5.01 0 7.95 1.62 7.95 5.19 0 2.58-1.8 4.11-3.84 4.53 2.42.39 4.77 1.56 4.77 5.07zm-11.1-12.72v6.75h3.36c2.37 0 4.14-1.2 4.14-3.45 0-2.58-1.86-3.3-5.01-3.3h-2.49zm8.33 12.72c0-2.94-2.16-3.96-4.71-3.96h-3.63v7.71h3.09c3.1 0 5.25-.72 5.25-3.75zM1187.05 38.03h-10.17c.27 3.81 2.01 5.31 4.41 5.31 1.59 0 2.76-.45 4.14-1.41l1.11 1.5c-1.53 1.23-3.27 1.98-5.43 1.98-4.35 0-6.9-3.09-6.9-8.1 0-4.95 2.46-8.4 6.48-8.4 4.23 0 6.42 2.97 6.42 7.74 0 .54-.03 1.05-.06 1.38zm-2.42-2.1c0-3.18-1.26-5.01-3.87-5.01-2.19 0-3.66 1.56-3.87 5.25h7.74v-.24zM1203.13 43.64l-.6 1.77c-1.53-.21-2.52-.84-2.94-2.43-1.11 1.68-2.79 2.43-4.74 2.43-3.12 0-4.98-1.95-4.98-4.77 0-3.36 2.52-5.16 6.84-5.16h2.58v-1.26c0-2.34-1.11-3.24-3.39-3.24-1.2 0-2.64.3-4.26.87l-.63-1.86c1.89-.72 3.6-1.08 5.34-1.08 3.75 0 5.46 1.92 5.46 5.19v7.32c0 1.47.48 1.92 1.32 2.22zm-3.84-2.73v-3.75h-2.25c-2.94 0-4.5 1.11-4.5 3.36 0 1.92.99 2.97 2.88 2.97 1.71 0 2.97-.87 3.87-2.58zM1215.4 44.36c-1.02.69-2.16 1.05-3.48 1.05-2.61 0-4.17-1.53-4.17-4.41v-9.78h-2.73v-1.95h2.73v-3.63l2.52-.27v3.9h3.81l-.27 1.95h-3.54v9.66c0 1.65.57 2.43 1.98 2.43.75 0 1.41-.21 2.19-.66l.96 1.71zM1236.1 31.61l-.87 6.51h2.07v1.92h-2.31l-.66 5.01h-2.16l.66-5.01H1228l-.66 5.01h-2.16l.66-5.01h-1.98v-1.92h2.22l.87-6.51h-1.98v-1.95h2.25l.6-4.65h2.16l-.6 4.65h4.83l.6-4.65h2.16l-.6 4.65h2.04v1.95h-2.31zm-2.16 0h-4.83l-.87 6.51h4.83l.87-6.51zM1253.77 40.04h-2.61v5.01h-2.46v-5.01h-8.61v-1.83l6.06-13.5 2.1.87-5.49 12.42h5.97l.24-5.49h2.19V38h2.61v2.04z"/><path fill="none" stroke="#000" stroke-width="2" stroke-miterlimit="10" d="M1052 74h305v26h-305z"/><g><path d="M617.77 281.13h8.52l-.3 2.28h-10.8v-20.64h2.58v18.36zM641.8 275.49c0 4.95-2.55 8.28-6.96 8.28s-6.93-3.21-6.93-8.22c0-4.95 2.55-8.28 6.96-8.28 4.44 0 6.93 3.18 6.93 8.22zm-11.19.06c0 4.17 1.5 6.18 4.23 6.18 2.73 0 4.26-2.01 4.26-6.24 0-4.17-1.5-6.18-4.23-6.18-2.7 0-4.26 2.01-4.26 6.24zM659.23 275.49c0 4.95-2.55 8.28-6.96 8.28s-6.93-3.21-6.93-8.22c0-4.95 2.55-8.28 6.96-8.28 4.44 0 6.93 3.18 6.93 8.22zm-11.19.06c0 4.17 1.5 6.18 4.23 6.18 2.73 0 4.26-2.01 4.26-6.24 0-4.17-1.5-6.18-4.23-6.18-2.7 0-4.26 2.01-4.26 6.24zM676.81 275.49c0 4.83-2.1 8.28-6.15 8.28-1.77 0-3.21-.63-4.2-1.86v7.53l-2.52.3v-22.11h2.16l.21 2.19c1.14-1.62 2.82-2.55 4.68-2.55 4.14 0 5.82 3.21 5.82 8.22zm-2.7 0c0-4.2-1.26-6.21-3.72-6.21-1.74 0-3.06 1.2-3.93 2.52v7.89c.84 1.26 2.1 2.01 3.63 2.01 2.61 0 4.02-1.98 4.02-6.21zM689.56 280.41v-19.14l2.52-.3v19.38c0 .87.3 1.32 1.05 1.32.39 0 .72-.06 1.02-.18l.66 1.77c-.57.3-1.32.51-2.1.51-1.92 0-3.15-1.17-3.15-3.36zM709.96 276.39h-10.17c.27 3.81 2.01 5.31 4.41 5.31 1.59 0 2.76-.45 4.14-1.41l1.11 1.5c-1.53 1.23-3.27 1.98-5.43 1.98-4.35 0-6.9-3.09-6.9-8.1 0-4.95 2.46-8.4 6.48-8.4 4.23 0 6.42 2.97 6.42 7.74 0 .54-.03 1.05-.06 1.38zm-2.43-2.1c0-3.18-1.26-5.01-3.87-5.01-2.19 0-3.66 1.56-3.87 5.25h7.74v-.24zM726.43 272.1v11.31h-2.52v-10.95c0-2.43-.99-3.21-2.61-3.21-1.86 0-3.12 1.17-4.2 2.91v11.25h-2.52v-15.78h2.16l.21 2.37c1.17-1.62 2.82-2.73 4.95-2.73 2.88 0 4.53 1.83 4.53 4.83zM744.61 268.26c-1.26.39-2.73.45-4.56.48 1.83.81 2.76 2.13 2.76 4.05 0 3.09-2.22 5.31-5.94 5.31-.72 0-1.38-.09-2.01-.3-.54.36-.87.93-.87 1.56 0 .75.48 1.35 2.16 1.35h2.52c3.21 0 5.31 1.83 5.31 4.29 0 3.03-2.43 4.74-7.26 4.74-5.07 0-6.72-1.53-6.72-4.71h2.28c0 1.89.9 2.73 4.44 2.73 3.48 0 4.71-.93 4.71-2.58 0-1.56-1.23-2.34-3.27-2.34h-2.49c-2.76 0-4.02-1.38-4.02-2.94 0-1.05.6-2.04 1.71-2.76-1.8-.96-2.64-2.34-2.64-4.41 0-3.21 2.52-5.46 6-5.46 3.99.09 5.37-.51 7.14-1.32l.75 2.31zm-11.31 4.47c0 2.22 1.26 3.69 3.48 3.69 2.25 0 3.45-1.35 3.45-3.69s-1.17-3.63-3.51-3.63c-2.25 0-3.42 1.53-3.42 3.63zM755.38 282.72c-1.02.69-2.16 1.05-3.48 1.05-2.61 0-4.17-1.53-4.17-4.41v-9.78H745v-1.95h2.73V264l2.52-.27v3.9h3.81l-.27 1.95h-3.54v9.66c0 1.65.57 2.43 1.98 2.43.75 0 1.41-.21 2.19-.66l.96 1.71zM770.14 272.1v11.31h-2.52v-10.95c0-2.43-1.02-3.21-2.64-3.21-1.8 0-3.09 1.17-4.17 2.88v11.28h-2.52V261.3l2.52-.3v8.88c1.17-1.59 2.76-2.61 4.8-2.61 2.85 0 4.53 1.86 4.53 4.83z"/></g><path fill="none" stroke="#000" stroke-width="2" stroke-miterlimit="10" d="M32 360h645v72H32z"/><g><path d="M250.45 400.13h-8.04l-1.62 5.28h-2.64l6.69-20.64h3.3l6.66 20.64h-2.76l-1.59-5.28zm-.66-2.13l-3.36-11.07-3.39 11.07h6.75zM269.83 394.1v11.31h-2.52v-10.95c0-2.43-.99-3.21-2.61-3.21-1.86 0-3.12 1.17-4.2 2.91v11.25h-2.52v-15.78h2.16l.21 2.37c1.17-1.62 2.82-2.73 4.95-2.73 2.88 0 4.53 1.83 4.53 4.83zM278.56 383.93c0 .99-.72 1.74-1.8 1.74-1.05 0-1.77-.75-1.77-1.74s.72-1.74 1.77-1.74c1.08 0 1.8.75 1.8 1.74zm-.51 21.48h-2.52v-15.78h2.52v15.78zM303.84 394.1v11.31h-2.52v-10.95c0-2.43-1.02-3.21-2.31-3.21-1.77 0-2.79 1.17-3.9 2.91v11.25h-2.52v-10.95c0-2.43-1.02-3.21-2.31-3.21-1.74 0-2.79 1.17-3.87 2.91v11.25h-2.52v-15.78h2.16l.21 2.37c1.11-1.62 2.58-2.73 4.62-2.73 1.98 0 3.39 1.11 3.96 2.94 1.14-1.74 2.64-2.94 4.77-2.94 2.58 0 4.23 1.86 4.23 4.83zM321.33 404l-.6 1.77c-1.53-.21-2.52-.84-2.94-2.43-1.11 1.68-2.79 2.43-4.74 2.43-3.12 0-4.98-1.95-4.98-4.77 0-3.36 2.52-5.16 6.84-5.16h2.58v-1.26c0-2.34-1.11-3.24-3.39-3.24-1.2 0-2.64.3-4.26.87l-.63-1.86c1.89-.72 3.6-1.08 5.34-1.08 3.75 0 5.46 1.92 5.46 5.19v7.32c.01 1.47.48 1.92 1.32 2.22zm-3.84-2.73v-3.75h-2.25c-2.94 0-4.5 1.11-4.5 3.36 0 1.92.99 2.97 2.88 2.97 1.71 0 2.98-.87 3.87-2.58zM333.6 404.72c-1.02.69-2.16 1.05-3.48 1.05-2.61 0-4.17-1.53-4.17-4.41v-9.78h-2.73v-1.95h2.73V386l2.52-.27v3.9h3.81l-.27 1.95h-3.54v9.66c0 1.65.57 2.43 1.98 2.43.75 0 1.41-.21 2.19-.66l.96 1.71zM339.54 383.93c0 .99-.72 1.74-1.8 1.74-1.05 0-1.77-.75-1.77-1.74s.72-1.74 1.77-1.74c1.08 0 1.8.75 1.8 1.74zm-.51 21.48h-2.52v-15.78h2.52v15.78zM357.6 397.49c0 4.95-2.55 8.28-6.96 8.28s-6.93-3.21-6.93-8.22c0-4.95 2.55-8.28 6.96-8.28 4.44 0 6.93 3.18 6.93 8.22zm-11.19.06c0 4.17 1.5 6.18 4.23 6.18 2.73 0 4.26-2.01 4.26-6.24 0-4.17-1.5-6.18-4.23-6.18-2.7 0-4.26 2.01-4.26 6.24zM374.16 394.1v11.31h-2.52v-10.95c0-2.43-.99-3.21-2.61-3.21-1.86 0-3.12 1.17-4.2 2.91v11.25h-2.52v-15.78h2.16l.21 2.37c1.17-1.62 2.82-2.73 4.95-2.73 2.88 0 4.53 1.83 4.53 4.83zM387.75 402.41v-19.14l2.52-.3v19.38c0 .87.3 1.32 1.05 1.32.39 0 .72-.06 1.02-.18l.66 1.77c-.57.3-1.32.51-2.1.51-1.92 0-3.15-1.17-3.15-3.36zM408.15 398.39h-10.17c.27 3.81 2.01 5.31 4.41 5.31 1.59 0 2.76-.45 4.14-1.41l1.11 1.5c-1.53 1.23-3.27 1.98-5.43 1.98-4.35 0-6.9-3.09-6.9-8.1 0-4.95 2.46-8.4 6.48-8.4 4.23 0 6.42 2.97 6.42 7.74 0 .54-.03 1.05-.06 1.38zm-2.43-2.1c0-3.18-1.26-5.01-3.87-5.01-2.19 0-3.66 1.56-3.87 5.25h7.74v-.24zM424.62 394.1v11.31h-2.52v-10.95c0-2.43-.99-3.21-2.61-3.21-1.86 0-3.12 1.17-4.2 2.91v11.25h-2.52v-15.78h2.16l.21 2.37c1.17-1.62 2.82-2.73 4.95-2.73 2.88 0 4.53 1.83 4.53 4.83zM442.8 390.26c-1.26.39-2.73.45-4.56.48 1.83.81 2.76 2.13 2.76 4.05 0 3.09-2.22 5.31-5.94 5.31-.72 0-1.38-.09-2.01-.3-.54.36-.87.93-.87 1.56 0 .75.48 1.35 2.16 1.35h2.52c3.21 0 5.31 1.83 5.31 4.29 0 3.03-2.43 4.74-7.26 4.74-5.07 0-6.72-1.53-6.72-4.71h2.28c0 1.89.9 2.73 4.44 2.73 3.48 0 4.71-.93 4.71-2.58 0-1.56-1.23-2.34-3.27-2.34h-2.49c-2.76 0-4.02-1.38-4.02-2.94 0-1.05.6-2.04 1.71-2.76-1.8-.96-2.64-2.34-2.64-4.41 0-3.21 2.52-5.46 6-5.46 3.99.09 5.37-.51 7.14-1.32l.75 2.31zm-11.31 4.47c0 2.22 1.26 3.69 3.48 3.69 2.25 0 3.45-1.35 3.45-3.69s-1.17-3.63-3.51-3.63c-2.25 0-3.42 1.53-3.42 3.63zM453.57 404.72c-1.02.69-2.16 1.05-3.48 1.05-2.61 0-4.17-1.53-4.17-4.41v-9.78h-2.73v-1.95h2.73V386l2.52-.27v3.9h3.81l-.27 1.95h-3.54v9.66c0 1.65.57 2.43 1.98 2.43.75 0 1.41-.21 2.19-.66l.96 1.71zM468.33 394.1v11.31h-2.52v-10.95c0-2.43-1.02-3.21-2.64-3.21-1.8 0-3.09 1.17-4.17 2.88v11.28h-2.52V383.3l2.52-.3v8.88c1.17-1.59 2.76-2.61 4.8-2.61 2.85 0 4.53 1.86 4.53 4.83z"/></g><g><path d="M408.56 508.78l-1.41 1.59c-1.56-1.26-3-1.8-4.74-1.8-2.19 0-3.84 1.05-3.84 3.06 0 1.83.87 2.7 4.59 3.84 3.39 1.02 6.06 2.34 6.06 6.21 0 3.6-2.7 6.09-7.23 6.09-2.94 0-5.22-.99-6.93-2.64l1.44-1.62c1.56 1.29 3.18 2.1 5.46 2.1 2.52 0 4.56-1.29 4.56-3.84 0-2.13-1.02-3.06-4.56-4.14-4.05-1.23-6.06-2.76-6.06-5.91 0-3.09 2.64-5.31 6.39-5.31 2.82 0 4.59.84 6.27 2.37zM421.25 526.72c-1.02.69-2.16 1.05-3.48 1.05-2.61 0-4.17-1.53-4.17-4.41v-9.78h-2.73v-1.95h2.73V508l2.52-.27v3.9h3.81l-.27 1.95h-3.54v9.66c0 1.65.57 2.43 1.98 2.43.75 0 1.41-.21 2.19-.66l.96 1.71zM435.41 520.39h-10.17c.27 3.81 2.01 5.31 4.41 5.31 1.59 0 2.76-.45 4.14-1.41l1.11 1.5c-1.53 1.23-3.27 1.98-5.43 1.98-4.35 0-6.9-3.09-6.9-8.1 0-4.95 2.46-8.4 6.48-8.4 4.23 0 6.42 2.97 6.42 7.74 0 .54-.03 1.05-.06 1.38zm-2.43-2.1c0-3.18-1.26-5.01-3.87-5.01-2.19 0-3.66 1.56-3.87 5.25h7.74v-.24zM452.9 519.49c0 4.83-2.1 8.28-6.15 8.28-1.77 0-3.21-.63-4.2-1.86v7.53l-2.52.3v-22.11h2.16l.21 2.19c1.14-1.62 2.82-2.55 4.68-2.55 4.14 0 5.82 3.21 5.82 8.22zm-2.7 0c0-4.2-1.26-6.21-3.72-6.21-1.74 0-3.06 1.2-3.93 2.52v7.89c.84 1.26 2.1 2.01 3.63 2.01 2.61 0 4.02-1.98 4.02-6.21zM475.43 512.14c0 2.58-1.68 4.11-3.93 4.62 2.52.21 4.53 1.83 4.53 4.89 0 3.51-2.61 6.12-6.72 6.12-2.4 0-4.44-.87-5.97-2.67l1.53-1.41c1.35 1.41 2.7 2.01 4.35 2.01 2.61 0 4.17-1.62 4.17-4.05 0-2.85-1.59-3.75-4.08-3.75h-1.47l.3-1.95h1.02c2.01 0 3.72-1.23 3.72-3.66 0-1.98-1.35-3.18-3.45-3.18-1.59 0-2.82.54-4.2 1.8l-1.32-1.5c1.68-1.56 3.51-2.34 5.67-2.34 3.75 0 5.85 2.34 5.85 5.07z"/></g><path fill="none" stroke="#000" stroke-width="2" stroke-miterlimit="10" d="M30 482h152.12v72H30zM194.96 482h152.12v72H194.96zM359.92 482h152.12v72H359.92zM524.88 482H677v72H524.88z"/><g><g fill="none" stroke="#000" stroke-width="2" stroke-miterlimit="10"><path d="M1357 429.5v2.5h-2.5"/><path stroke-dasharray="4.9612,7.938" d="M1346.56 432H718.47"/><path d="M714.5 432H712v-2.5"/><path stroke-dasharray="4.589,7.3425" d="M712 422.16v-55.99"/><path d="M712 362.5V360h2.5"/><path stroke-dasharray="4.9612,7.938" d="M722.44 360h628.09"/><path d="M1354.5 360h2.5v2.5"/><path stroke-dasharray="4.589,7.3425" d="M1357 369.84v55.99"/></g></g><g><path d="M993.71 386.99h-5.79v18.42h-2.58v-18.42h-5.94v-2.22h14.61l-.3 2.22zM1000.29 383.93c0 .99-.72 1.74-1.8 1.74-1.05 0-1.77-.75-1.77-1.74s.72-1.74 1.77-1.74c1.07 0 1.8.75 1.8 1.74zm-.51 21.48h-2.52v-15.78h2.52v15.78zM1025.57 394.1v11.31h-2.52v-10.95c0-2.43-1.02-3.21-2.31-3.21-1.77 0-2.79 1.17-3.9 2.91v11.25h-2.52v-10.95c0-2.43-1.02-3.21-2.31-3.21-1.74 0-2.79 1.17-3.87 2.91v11.25h-2.52v-15.78h2.16l.21 2.37c1.11-1.62 2.58-2.73 4.62-2.73 1.98 0 3.39 1.11 3.96 2.94 1.14-1.74 2.64-2.94 4.77-2.94 2.58 0 4.23 1.86 4.23 4.83zM1042.97 398.39h-10.17c.27 3.81 2.01 5.31 4.41 5.31 1.59 0 2.76-.45 4.14-1.41l1.11 1.5c-1.53 1.23-3.27 1.98-5.43 1.98-4.35 0-6.9-3.09-6.9-8.1 0-4.95 2.46-8.4 6.48-8.4 4.23 0 6.42 2.97 6.42 7.74 0 .54-.03 1.05-.06 1.38zm-2.43-2.1c0-3.18-1.26-5.01-3.87-5.01-2.19 0-3.66 1.56-3.87 5.25h7.74v-.24zM1068.35 397.49c0 4.95-2.55 8.28-6.96 8.28s-6.93-3.21-6.93-8.22c0-4.95 2.55-8.28 6.96-8.28 4.45 0 6.93 3.18 6.93 8.22zm-11.19.06c0 4.17 1.5 6.18 4.23 6.18s4.26-2.01 4.26-6.24c0-4.17-1.5-6.18-4.23-6.18-2.7 0-4.26 2.01-4.26 6.24zM1075.82 387.35v2.28h3.9l-.27 1.95h-3.63v13.83h-2.52v-13.83h-2.79v-1.95h2.79v-2.25c0-2.61 1.71-4.41 4.8-4.41 1.47 0 2.52.27 3.75.81l-.81 1.83c-1.02-.45-1.95-.6-2.79-.6-1.77 0-2.43.75-2.43 2.34zM1085.78 387.35v2.28h3.9l-.27 1.95h-3.63v13.83h-2.52v-13.83h-2.79v-1.95h2.79v-2.25c0-2.61 1.71-4.41 4.8-4.41 1.47 0 2.52.27 3.75.81l-.81 1.83c-1.02-.45-1.95-.6-2.79-.6-1.77 0-2.43.75-2.43 2.34z"/></g><path fill="none" stroke="#000" stroke-width="2" stroke-miterlimit="10" d="M32 139h1325"/><g><path d="M243.68 508.78l-1.41 1.59c-1.56-1.26-3-1.8-4.74-1.8-2.19 0-3.84 1.05-3.84 3.06 0 1.83.87 2.7 4.59 3.84 3.39 1.02 6.06 2.34 6.06 6.21 0 3.6-2.7 6.09-7.23 6.09-2.94 0-5.22-.99-6.93-2.64l1.44-1.62c1.56 1.29 3.18 2.1 5.46 2.1 2.52 0 4.56-1.29 4.56-3.84 0-2.13-1.02-3.06-4.56-4.14-4.05-1.23-6.06-2.76-6.06-5.91 0-3.09 2.64-5.31 6.39-5.31 2.82 0 4.58.84 6.27 2.37zM256.36 526.72c-1.02.69-2.16 1.05-3.48 1.05-2.61 0-4.17-1.53-4.17-4.41v-9.78h-2.73v-1.95h2.73V508l2.52-.27v3.9h3.81l-.27 1.95h-3.54v9.66c0 1.65.57 2.43 1.98 2.43.75 0 1.41-.21 2.19-.66l.96 1.71zM270.52 520.39h-10.17c.27 3.81 2.01 5.31 4.41 5.31 1.59 0 2.76-.45 4.14-1.41l1.11 1.5c-1.53 1.23-3.27 1.98-5.43 1.98-4.35 0-6.9-3.09-6.9-8.1 0-4.95 2.46-8.4 6.48-8.4 4.23 0 6.42 2.97 6.42 7.74 0 .54-.03 1.05-.06 1.38zm-2.43-2.1c0-3.18-1.26-5.01-3.87-5.01-2.19 0-3.66 1.56-3.87 5.25h7.74v-.24zM288.01 519.49c0 4.83-2.1 8.28-6.15 8.28-1.77 0-3.21-.63-4.2-1.86v7.53l-2.52.3v-22.11h2.16l.21 2.19c1.14-1.62 2.82-2.55 4.68-2.55 4.14 0 5.82 3.21 5.82 8.22zm-2.7 0c0-4.2-1.26-6.21-3.72-6.21-1.74 0-3.06 1.2-3.93 2.52v7.89c.84 1.26 2.1 2.01 3.63 2.01 2.61 0 4.02-1.98 4.02-6.21zM310.69 512.5c0 3.81-2.37 6.42-8.64 12.78h9.12l-.3 2.13h-11.7v-2.01c7.14-7.5 8.88-9.45 8.88-12.78 0-2.19-1.38-3.48-3.39-3.48-1.74 0-2.91.72-4.23 2.22l-1.65-1.32c1.62-1.98 3.51-2.97 6-2.97 3.63 0 5.91 2.34 5.91 5.43z"/></g><g><path d="M79.66 508.78l-1.41 1.59c-1.56-1.26-3-1.8-4.74-1.8-2.19 0-3.84 1.05-3.84 3.06 0 1.83.87 2.7 4.59 3.84 3.39 1.02 6.06 2.34 6.06 6.21 0 3.6-2.7 6.09-7.23 6.09-2.94 0-5.22-.99-6.93-2.64l1.44-1.62c1.56 1.29 3.18 2.1 5.46 2.1 2.52 0 4.56-1.29 4.56-3.84 0-2.13-1.02-3.06-4.56-4.14-4.05-1.23-6.06-2.76-6.06-5.91 0-3.09 2.64-5.31 6.39-5.31 2.82 0 4.59.84 6.27 2.37zM92.35 526.72c-1.02.69-2.16 1.05-3.48 1.05-2.61 0-4.17-1.53-4.17-4.41v-9.78h-2.73v-1.95h2.73V508l2.52-.27v3.9h3.81l-.27 1.95h-3.54v9.66c0 1.65.57 2.43 1.98 2.43.75 0 1.41-.21 2.19-.66l.96 1.71zM106.51 520.39H96.34c.27 3.81 2.01 5.31 4.41 5.31 1.59 0 2.76-.45 4.14-1.41l1.11 1.5c-1.53 1.23-3.27 1.98-5.43 1.98-4.35 0-6.9-3.09-6.9-8.1 0-4.95 2.46-8.4 6.48-8.4 4.23 0 6.42 2.97 6.42 7.74 0 .54-.03 1.05-.06 1.38zm-2.43-2.1c0-3.18-1.26-5.01-3.87-5.01-2.19 0-3.66 1.56-3.87 5.25h7.74v-.24zM124 519.49c0 4.83-2.1 8.28-6.15 8.28-1.77 0-3.21-.63-4.2-1.86v7.53l-2.52.3v-22.11h2.16l.21 2.19c1.14-1.62 2.82-2.55 4.68-2.55 4.14 0 5.82 3.21 5.82 8.22zm-2.7 0c0-4.2-1.26-6.21-3.72-6.21-1.74 0-3.06 1.2-3.93 2.52v7.89c.84 1.26 2.1 2.01 3.63 2.01 2.61 0 4.02-1.98 4.02-6.21zM143.44 527.41h-2.52v-17.34l-4.74 2.91-1.11-1.8 6.15-3.81h2.22v20.04z"/></g><g><path d="M573.03 508.78l-1.41 1.59c-1.56-1.26-3-1.8-4.74-1.8-2.19 0-3.84 1.05-3.84 3.06 0 1.83.87 2.7 4.59 3.84 3.39 1.02 6.06 2.34 6.06 6.21 0 3.6-2.7 6.09-7.23 6.09-2.94 0-5.22-.99-6.93-2.64l1.44-1.62c1.56 1.29 3.18 2.1 5.46 2.1 2.52 0 4.56-1.29 4.56-3.84 0-2.13-1.02-3.06-4.56-4.14-4.05-1.23-6.06-2.76-6.06-5.91 0-3.09 2.64-5.31 6.39-5.31 2.82 0 4.58.84 6.27 2.37zM585.71 526.72c-1.02.69-2.16 1.05-3.48 1.05-2.61 0-4.17-1.53-4.17-4.41v-9.78h-2.73v-1.95h2.73V508l2.52-.27v3.9h3.81l-.27 1.95h-3.54v9.66c0 1.65.57 2.43 1.98 2.43.75 0 1.41-.21 2.19-.66l.96 1.71zM599.88 520.39h-10.17c.27 3.81 2.01 5.31 4.41 5.31 1.59 0 2.76-.45 4.14-1.41l1.11 1.5c-1.53 1.23-3.27 1.98-5.43 1.98-4.35 0-6.9-3.09-6.9-8.1 0-4.95 2.46-8.4 6.48-8.4 4.23 0 6.42 2.97 6.42 7.74-.01.54-.03 1.05-.06 1.38zm-2.43-2.1c0-3.18-1.26-5.01-3.87-5.01-2.19 0-3.66 1.56-3.87 5.25h7.74v-.24zM617.36 519.49c0 4.83-2.1 8.28-6.15 8.28-1.77 0-3.21-.63-4.2-1.86v7.53l-2.52.3v-22.11h2.16l.21 2.19c1.14-1.62 2.82-2.55 4.68-2.55 4.14 0 5.82 3.21 5.82 8.22zm-2.7 0c0-4.2-1.26-6.21-3.72-6.21-1.74 0-3.06 1.2-3.93 2.52v7.89c.84 1.26 2.1 2.01 3.63 2.01 2.61 0 4.02-1.98 4.02-6.21zM642.23 522.4h-2.61v5.01h-2.46v-5.01h-8.61v-1.83l6.06-13.5 2.1.87-5.49 12.42h5.97l.24-5.49h2.19v5.49h2.61v2.04z"/></g></svg>